<svg width="157" height="156" viewBox="0 0 157 156" fill="none" xmlns="http://www.w3.org/2000/svg">
<circle cx="78.5216" cy="77.5647" r="77.508" fill="#AF13FF"/>
<g filter="url(#filter0_f_2029_190)">
<path d="M25.5572 84L25.0772 82.9H20.3372L19.8572 84H16.1572L22.1572 70.56H23.2572L29.2572 84H25.5572ZM23.8572 80.14L22.7172 77.08L21.5572 80.14H23.8572ZM40.1416 70.8L35.6216 78.94V84H32.1816V78.98L27.6416 70.8H31.4416L33.9016 75.4L36.3616 70.8H40.1416ZM41.4997 84V70.8H44.9397V80.9H50.3997V84H41.4997ZM60.3228 84L59.8428 82.9H55.1028L54.6228 84H50.9228L56.9228 70.56H58.0228L64.0228 84H60.3228ZM58.6228 80.14L57.4828 77.08L56.3228 80.14H58.6228ZM73.6464 70.8H77.0864V84.24H75.9864L68.8264 77.3V84H65.3864V70.56H66.4864L73.6464 77.4V70.8ZM82.5623 84V73.9H78.6023V70.8H89.9623V73.9H86.0023V84H82.5623ZM91.4802 84V70.8H94.9202V84H91.4802ZM109.234 84H105.394L102.414 79.9H100.994V84H97.5544V70.8H102.734C104.214 70.8 105.434 71.22 106.394 72.06C107.354 72.8867 107.834 73.98 107.834 75.34C107.834 76.9933 107.141 78.2467 105.754 79.1L109.234 84ZM100.994 73.8V76.9H102.754C103.234 76.9 103.614 76.76 103.894 76.48C104.188 76.1867 104.334 75.8067 104.334 75.34C104.334 74.8733 104.188 74.5 103.894 74.22C103.614 73.94 103.234 73.8 102.754 73.8H100.994ZM110.601 84V70.8H114.041V84H110.601ZM115.815 81.28L118.135 79.52C118.562 80.08 119.002 80.5067 119.455 80.8C119.909 81.08 120.449 81.22 121.075 81.22C121.982 81.22 122.435 80.9 122.435 80.26C122.435 79.98 122.349 79.7667 122.175 79.62C122.002 79.4733 121.642 79.28 121.095 79.04L119.735 78.44C117.509 77.4533 116.395 76.1267 116.395 74.46C116.395 73.3 116.822 72.36 117.675 71.64C118.542 70.92 119.655 70.56 121.015 70.56C123.149 70.56 124.655 71.4467 125.535 73.22L123.235 74.98C122.902 74.4867 122.569 74.1333 122.235 73.92C121.902 73.6933 121.509 73.58 121.055 73.58C120.269 73.58 119.875 73.86 119.875 74.42C119.875 74.66 119.955 74.86 120.115 75.02C120.289 75.1667 120.589 75.3267 121.015 75.5L122.535 76.14C123.709 76.6333 124.562 77.1933 125.095 77.82C125.642 78.4333 125.915 79.2 125.915 80.12C125.915 81.3733 125.455 82.3733 124.535 83.12C123.629 83.8667 122.475 84.24 121.075 84.24C119.902 84.24 118.849 83.98 117.915 83.46C116.995 82.9267 116.295 82.2 115.815 81.28ZM127.867 84V70.8H131.307V75.62H136.127V70.8H139.567V84H136.127V78.72H131.307V84H127.867Z" fill="white"/>
</g>
<path d="M25.5572 84L25.0772 82.9H20.3372L19.8572 84H16.1572L22.1572 70.56H23.2572L29.2572 84H25.5572ZM23.8572 80.14L22.7172 77.08L21.5572 80.14H23.8572ZM40.1416 70.8L35.6216 78.94V84H32.1816V78.98L27.6416 70.8H31.4416L33.9016 75.4L36.3616 70.8H40.1416ZM41.4997 84V70.8H44.9397V80.9H50.3997V84H41.4997ZM60.3228 84L59.8428 82.9H55.1028L54.6228 84H50.9228L56.9228 70.56H58.0228L64.0228 84H60.3228ZM58.6228 80.14L57.4828 77.08L56.3228 80.14H58.6228ZM73.6464 70.8H77.0864V84.24H75.9864L68.8264 77.3V84H65.3864V70.56H66.4864L73.6464 77.4V70.8ZM82.5623 84V73.9H78.6023V70.8H89.9623V73.9H86.0023V84H82.5623ZM91.4802 84V70.8H94.9202V84H91.4802ZM109.234 84H105.394L102.414 79.9H100.994V84H97.5544V70.8H102.734C104.214 70.8 105.434 71.22 106.394 72.06C107.354 72.8867 107.834 73.98 107.834 75.34C107.834 76.9933 107.141 78.2467 105.754 79.1L109.234 84ZM100.994 73.8V76.9H102.754C103.234 76.9 103.614 76.76 103.894 76.48C104.188 76.1867 104.334 75.8067 104.334 75.34C104.334 74.8733 104.188 74.5 103.894 74.22C103.614 73.94 103.234 73.8 102.754 73.8H100.994ZM110.601 84V70.8H114.041V84H110.601ZM115.815 81.28L118.135 79.52C118.562 80.08 119.002 80.5067 119.455 80.8C119.909 81.08 120.449 81.22 121.075 81.22C121.982 81.22 122.435 80.9 122.435 80.26C122.435 79.98 122.349 79.7667 122.175 79.62C122.002 79.4733 121.642 79.28 121.095 79.04L119.735 78.44C117.509 77.4533 116.395 76.1267 116.395 74.46C116.395 73.3 116.822 72.36 117.675 71.64C118.542 70.92 119.655 70.56 121.015 70.56C123.149 70.56 124.655 71.4467 125.535 73.22L123.235 74.98C122.902 74.4867 122.569 74.1333 122.235 73.92C121.902 73.6933 121.509 73.58 121.055 73.58C120.269 73.58 119.875 73.86 119.875 74.42C119.875 74.66 119.955 74.86 120.115 75.02C120.289 75.1667 120.589 75.3267 121.015 75.5L122.535 76.14C123.709 76.6333 124.562 77.1933 125.095 77.82C125.642 78.4333 125.915 79.2 125.915 80.12C125.915 81.3733 125.455 82.3733 124.535 83.12C123.629 83.8667 122.475 84.24 121.075 84.24C119.902 84.24 118.849 83.98 117.915 83.46C116.995 82.9267 116.295 82.2 115.815 81.28ZM127.867 84V70.8H131.307V75.62H136.127V70.8H139.567V84H136.127V78.72H131.307V84H127.867Z" fill="white"/>
<defs>
<filter id="filter0_f_2029_190" x="0.557196" y="54.96" width="154.61" height="44.88" filterUnits="userSpaceOnUse" color-interpolation-filters="sRGB">
<feFlood flood-opacity="0" result="BackgroundImageFix"/>
<feBlend mode="normal" in="SourceGraphic" in2="BackgroundImageFix" result="shape"/>
<feGaussianBlur stdDeviation="7.8" result="effect1_foregroundBlur_2029_190"/>
</filter>
</defs>
</svg>
