<svg width="17" height="17" viewBox="0 0 17 17" fill="none" xmlns="http://www.w3.org/2000/svg">
<g clip-path="url(#clip0_2008_170)">
<path d="M8.05595 4.27612C3.8873 4.27612 0.679736 7.9486 0.679736 7.9486L0.382812 8.27678L0.679736 8.60496C0.679736 8.60496 3.60405 11.9395 7.49336 12.2462C7.67894 12.2696 7.86451 12.2774 8.05595 12.2774C8.24739 12.2774 8.43297 12.2696 8.61855 12.2462C12.5079 11.9395 15.4322 8.60496 15.4322 8.60496L15.7291 8.27678L15.4322 7.9486C15.4322 7.9486 12.2246 4.27612 8.05595 4.27612ZM8.05595 5.27629C9.1577 5.27629 10.1735 5.57712 11.0564 5.97953C11.3749 6.50696 11.5565 7.11448 11.5565 7.7767C11.5565 9.58364 10.2008 11.0683 8.44664 11.2616C8.43687 11.2636 8.42515 11.2597 8.41539 11.2616C8.29623 11.2675 8.17707 11.2773 8.05595 11.2773C7.92312 11.2773 7.79419 11.2695 7.66526 11.2616C5.91107 11.0683 4.55538 9.58364 4.55538 7.7767C4.55538 7.12425 4.73119 6.51673 5.03983 5.99516H5.0242C5.91497 5.58493 6.94249 5.27629 8.05595 5.27629ZM8.05595 6.27645C7.22769 6.27645 6.55571 6.94844 6.55571 7.7767C6.55571 8.60496 7.22769 9.27695 8.05595 9.27695C8.88421 9.27695 9.5562 8.60496 9.5562 7.7767C9.5562 6.94844 8.88421 6.27645 8.05595 6.27645ZM3.68023 6.74528C3.60209 7.08127 3.55521 7.41922 3.55521 7.7767C3.55521 8.6538 3.80525 9.47425 4.24282 10.1677C2.98285 9.43908 2.10771 8.5698 1.82055 8.27678C2.06082 8.03065 2.73086 7.3782 3.68023 6.74528ZM12.4317 6.74528C13.381 7.3782 14.0511 8.03065 14.2914 8.27678C14.0042 8.5698 13.1291 9.43908 11.8691 10.1677C12.3067 9.47425 12.5567 8.6538 12.5567 7.7767C12.5567 7.41922 12.5098 7.07737 12.4317 6.74528Z" fill="white"/>
</g>
<defs>
<clipPath id="clip0_2008_170">
<rect width="16.0026" height="16.0026" fill="white" transform="translate(0.0546875 0.275452)"/>
</clipPath>
</defs>
</svg>
