<svg width="17" height="17" viewBox="0 0 17 17" fill="none" xmlns="http://www.w3.org/2000/svg">
<path fill-rule="evenodd" clip-rule="evenodd" d="M7.97828 4.91437C8.12068 4.77202 8.31378 4.69205 8.51513 4.69205C8.71648 4.69205 8.90958 4.77202 9.05198 4.91437L10.5706 6.43303C10.709 6.57624 10.7855 6.76805 10.7838 6.96714C10.782 7.16623 10.7022 7.35668 10.5614 7.49747C10.4206 7.63825 10.2301 7.71811 10.0311 7.71984C9.83196 7.72157 9.64015 7.64504 9.49694 7.50672L8.51513 6.52491L7.53332 7.50672C7.39011 7.64504 7.1983 7.72157 6.9992 7.71984C6.80011 7.71811 6.60966 7.63825 6.46888 7.49747C6.32809 7.35668 6.24823 7.16623 6.2465 6.96714C6.24477 6.76805 6.32131 6.57624 6.45963 6.43303L7.97828 4.91437ZM6.45963 9.47034C6.60202 9.32799 6.79512 9.24802 6.99647 9.24802C7.19782 9.24802 7.39092 9.32799 7.53332 9.47034L8.51513 10.4522L9.49694 9.47034C9.64015 9.33203 9.83196 9.25549 10.0311 9.25722C10.2301 9.25895 10.4206 9.33881 10.5614 9.47959C10.7022 9.62038 10.782 9.81083 10.7838 10.0099C10.7855 10.209 10.709 10.4008 10.5706 10.544L9.05198 12.0627C8.90958 12.205 8.71648 12.285 8.51513 12.285C8.31378 12.285 8.12068 12.205 7.97828 12.0627L6.45963 10.544C6.31727 10.4016 6.2373 10.2085 6.2373 10.0072C6.2373 9.80584 6.31727 9.61274 6.45963 9.47034Z" fill="white"/>
</svg>
