<svg width="68" height="100" viewBox="0 0 68 100" fill="none" xmlns="http://www.w3.org/2000/svg">
<path d="M2.07745 33.1059C2.07745 15.4583 16.3863 1.14938 34.034 1.14938C51.6816 1.14938 65.9905 15.4553 65.9905 33.1059C65.9905 50.7565 34.034 97.6382 34.034 97.6382C34.034 97.6382 2.07745 50.7536 2.07745 33.1059Z" fill="white"/>
<path d="M34.034 0.0591932C52.2564 0.0591932 67.0807 14.8836 67.0807 33.1059C67.0807 51.3283 36.247 96.3258 34.9346 98.2544L34.034 99.5757L33.1334 98.2544C31.821 96.3288 0.987259 50.8869 0.987259 33.1059C0.987259 15.325 15.8116 0.0591932 34.034 0.0591932ZM34.034 95.68C39.2125 87.9064 64.9003 48.5702 64.9003 33.1059C64.9003 16.0863 51.0536 2.24256 34.034 2.24256C17.0144 2.24256 3.17062 16.0893 3.17062 33.1059C3.17062 48.5732 28.8555 87.9064 34.034 95.68Z" fill="#F1F1F1"/>
<g filter="url(#filter0_ii_317_1617)">
<path d="M13.4269 32.5935C13.4269 20.9659 22.853 11.5419 34.4784 11.5419C46.1038 11.5419 55.53 20.9681 55.53 32.5935C55.53 44.2188 46.1038 53.645 34.4784 53.645C22.853 53.645 13.4269 44.2188 13.4269 32.5935Z" fill="#9D06E3"/>
</g>
<defs>
<filter id="filter0_ii_317_1617" x="12.47" y="10.585" width="44.0169" height="44.0169" filterUnits="userSpaceOnUse" color-interpolation-filters="sRGB">
<feFlood flood-opacity="0" result="BackgroundImageFix"/>
<feBlend mode="normal" in="SourceGraphic" in2="BackgroundImageFix" result="shape"/>
<feColorMatrix in="SourceAlpha" type="matrix" values="0 0 0 0 0 0 0 0 0 0 0 0 0 0 0 0 0 0 127 0" result="hardAlpha"/>
<feOffset dx="0.956889" dy="0.956889"/>
<feGaussianBlur stdDeviation="1.91378"/>
<feComposite in2="hardAlpha" operator="arithmetic" k2="-1" k3="1"/>
<feColorMatrix type="matrix" values="0 0 0 0 0 0 0 0 0 0 0 0 0 0 0 0 0 0 0.25 0"/>
<feBlend mode="normal" in2="shape" result="effect1_innerShadow_317_1617"/>
<feColorMatrix in="SourceAlpha" type="matrix" values="0 0 0 0 0 0 0 0 0 0 0 0 0 0 0 0 0 0 127 0" result="hardAlpha"/>
<feOffset dx="-0.956889" dy="-0.956889"/>
<feGaussianBlur stdDeviation="1.91378"/>
<feComposite in2="hardAlpha" operator="arithmetic" k2="-1" k3="1"/>
<feColorMatrix type="matrix" values="0 0 0 0 0 0 0 0 0 0 0 0 0 0 0 0 0 0 0.25 0"/>
<feBlend mode="normal" in2="effect1_innerShadow_317_1617" result="effect2_innerShadow_317_1617"/>
</filter>
</defs>
</svg>
