<svg width="462" height="462" viewBox="0 0 462 462" fill="none" xmlns="http://www.w3.org/2000/svg">
<path d="M231.381 21.1373C115.484 21.1373 21.5016 115.081 21.5016 231.016C21.5016 346.951 115.446 440.895 231.381 440.895C347.315 440.895 441.259 346.913 441.259 231.016C441.259 115.12 347.315 21.1373 231.381 21.1373ZM231.381 438.079C117.027 438.079 24.318 345.369 24.318 231.016C24.318 116.663 117.027 23.9537 231.381 23.9537C345.734 23.9537 438.443 116.663 438.443 231.016C438.443 345.369 345.734 438.079 231.381 438.079Z" fill="url(#paint0_linear_234_583)"/>
<path d="M438.597 231.012C438.597 345.442 345.849 438.19 231.419 438.19C116.989 438.19 24.2408 345.442 24.2408 231.012C24.2408 116.581 116.989 23.8335 231.419 23.8335C345.849 23.8335 438.597 116.581 438.597 231.012Z" fill="url(#paint1_linear_234_583)"/>
<path d="M419.376 238.833C423.691 135.006 343.021 47.3395 239.194 43.0241C135.366 38.7088 47.6997 119.379 43.3844 223.206C39.069 327.033 119.739 414.7 223.566 419.015C327.394 423.331 415.06 342.66 419.376 238.833Z" fill="url(#paint2_linear_234_583)"/>
<path d="M415.567 231.015C415.567 332.714 333.12 415.161 231.422 415.161C129.723 415.161 47.2761 332.714 47.2761 231.015C47.2761 129.316 129.723 46.8694 231.422 46.8694C333.12 46.8694 415.567 129.316 415.567 231.015Z" fill="#3D0773"/>
<path d="M230.473 230.518L55.4672 176.294C70.4879 127.994 103.577 90.2817 144.998 68.2978L230.473 230.518Z" fill="url(#paint3_linear_234_583)"/>
<path d="M284.934 54.7469L230.473 230.519L144.998 68.2987C186.53 46.2471 236.446 40.0033 284.934 54.7469Z" fill="url(#paint4_linear_234_583)"/>
<path d="M393.961 144.376L230.472 230.519L284.934 54.7464C285.258 54.8382 285.579 54.9378 285.904 55.0386C334.197 70.0017 371.924 103.015 393.961 144.376Z" fill="url(#paint5_linear_234_583)"/>
<path d="M407.414 285.342L230.472 230.519L393.961 144.376C416.239 186.177 422.484 236.514 407.414 285.342Z" fill="url(#paint6_linear_234_583)"/>
<path d="M407.414 285.342L407.354 285.536C392.236 334.329 358.698 372.326 316.749 394.261L230.472 230.519L407.414 285.342Z" fill="url(#paint7_linear_234_583)"/>
<path d="M316.749 394.261C275.14 416.026 225.25 421.98 176.857 406.986C176.531 406.885 176.21 406.786 175.891 406.678L230.472 230.519L316.749 394.261Z" fill="url(#paint8_linear_234_583)"/>
<path d="M230.473 230.519L175.891 406.678C127.464 391.394 89.7672 357.915 67.9986 316.127L230.473 230.519Z" fill="url(#paint9_linear_234_583)"/>
<path d="M230.473 230.519L67.9987 316.127C46.3426 274.565 40.4439 224.782 55.4071 176.489L55.467 176.295L230.473 230.519Z" fill="url(#paint10_linear_234_583)"/>
<path d="M377.825 192.916C376.305 193.014 375.061 192.476 374.094 191.304C373.126 190.132 372.58 188.58 372.456 186.651C372.33 184.704 372.672 183.087 373.481 181.8C374.29 180.513 375.454 179.82 376.974 179.722C378.836 179.602 380.265 180.488 381.261 182.378C382.158 180.863 383.392 180.054 384.964 179.953C386.415 179.859 387.586 180.333 388.477 181.373C389.368 182.43 389.869 183.813 389.979 185.521C390.089 187.229 389.769 188.655 389.02 189.801C388.271 190.947 387.17 191.567 385.718 191.661C384.147 191.762 382.819 191.119 381.735 189.731C380.99 191.734 379.686 192.796 377.825 192.916ZM385.018 183.988C384.659 184.011 384.353 184.177 384.098 184.485C383.844 184.793 383.575 185.282 383.292 185.952C383.642 186.581 383.97 187.023 384.278 187.277C384.587 187.549 384.921 187.673 385.28 187.65C385.69 187.624 386.003 187.432 386.22 187.075C386.454 186.717 386.554 186.273 386.52 185.744C386.486 185.214 386.329 184.778 386.05 184.436C385.772 184.111 385.428 183.962 385.018 183.988ZM377.723 188.549C378.594 188.493 379.246 187.696 379.679 186.159C379.036 184.708 378.288 184.011 377.434 184.066C376.939 184.098 376.558 184.311 376.292 184.705C376.027 185.117 375.918 185.69 375.966 186.424C376.012 187.142 376.192 187.679 376.507 188.036C376.822 188.41 377.228 188.581 377.723 188.549ZM381.918 194.96C384.497 194.794 386.62 195.266 388.286 196.376C389.954 197.503 390.86 199.185 391.004 201.423C391.148 203.66 390.465 205.436 388.955 206.751C387.446 208.083 385.402 208.832 382.823 208.999C380.21 209.167 378.036 208.69 376.3 207.567C374.564 206.444 373.624 204.773 373.481 202.553C373.338 200.332 374.055 198.554 375.632 197.217C377.21 195.881 379.305 195.128 381.918 194.96ZM382.507 204.492C384.095 204.389 385.243 204.109 385.951 203.652C386.676 203.194 387.011 202.538 386.956 201.684C386.901 200.83 386.485 200.222 385.707 199.861C384.946 199.498 383.772 199.368 382.183 199.47C378.972 199.677 377.421 200.618 377.529 202.292C377.637 203.965 379.296 204.699 382.507 204.492ZM374.896 219.715L391.805 218.625L392.545 230.102L388.574 230.358L388.118 223.287L384.89 223.496L385.26 229.234L381.289 229.49L380.919 223.752L375.181 224.122L374.896 219.715ZM379.205 232.274L381.651 235.1C380.969 235.693 380.459 236.292 380.12 236.897C379.799 237.501 379.664 238.204 379.716 239.007C379.791 240.168 380.238 240.722 381.058 240.669C381.417 240.646 381.683 240.518 381.856 240.284C382.03 240.049 382.248 239.572 382.51 238.852L383.166 237.061C384.246 234.127 385.854 232.591 387.989 232.454C389.474 232.358 390.714 232.827 391.707 233.86C392.7 234.911 393.253 236.307 393.366 238.049C393.542 240.782 392.531 242.785 390.332 244.059L387.887 241.258C388.492 240.79 388.917 240.334 389.163 239.89C389.425 239.444 389.538 238.931 389.501 238.35C389.436 237.342 389.045 236.862 388.327 236.908C388.02 236.928 387.77 237.047 387.579 237.265C387.405 237.499 387.225 237.897 387.038 238.457L386.344 240.457C385.809 242.001 385.162 243.14 384.403 243.875C383.663 244.626 382.703 245.039 381.525 245.115C379.919 245.219 378.601 244.712 377.568 243.596C376.537 242.496 375.963 241.049 375.848 239.256C375.751 237.753 375.997 236.382 376.586 235.144C377.193 233.921 378.066 232.965 379.205 232.274Z" fill="url(#paint11_linear_234_583)"/>
<path d="M74.5522 265.573L74.3841 264.171L91.2068 262.154L91.7325 266.538L80.1095 267.932L81.3949 270.673L77.6459 272.183L74.5522 265.573ZM83.6838 247.283C85.4 247.077 86.9048 247.552 88.1982 248.707C89.4746 249.864 90.2269 251.394 90.4551 253.297C90.6323 254.775 90.4334 256.135 89.8583 257.376C89.2811 258.6 88.3984 259.577 87.2102 260.305L84.7054 257.529C85.409 256.927 85.9011 256.36 86.1819 255.826C86.4436 255.278 86.5327 254.655 86.4492 253.958C86.3616 253.228 86.1299 252.661 85.754 252.258C85.3612 251.857 84.8674 251.692 84.2727 251.763C83.1342 251.9 82.681 252.936 82.9133 254.874L83.3932 258.875L73.8858 260.015L72.6357 249.59L76.5865 249.117L77.3384 255.387L79.301 255.152C79.1108 254.571 78.9871 254.043 78.9301 253.567C78.7208 252.11 79.0652 250.741 79.9632 249.462C80.8592 248.165 82.0994 247.439 83.6838 247.283ZM88.1608 236.751L71.3381 238.768L69.9688 227.349L73.9196 226.875L74.7632 233.91L77.9748 233.525L77.2902 227.816L81.241 227.342L81.9256 233.051L87.6351 232.367L88.1608 236.751ZM83.1692 224.448L80.5716 221.76C81.2201 221.131 81.6967 220.505 82.0012 219.882C82.2888 219.262 82.3847 218.552 82.2889 217.753C82.1504 216.598 81.6733 216.069 80.8576 216.167C80.5008 216.21 80.2421 216.353 80.0817 216.596C79.9213 216.839 79.7299 217.328 79.5076 218.061L78.9507 219.886C78.0335 222.874 76.5129 224.496 74.3888 224.751C72.9105 224.928 71.6473 224.528 70.5993 223.55C69.5492 222.556 68.9203 221.192 68.7125 219.459C68.3864 216.74 69.2862 214.684 71.4118 213.292L74.0063 215.954C73.4285 216.454 73.0291 216.933 72.8082 217.39C72.5702 217.85 72.4859 218.369 72.5552 218.946C72.6754 219.949 73.0924 220.407 73.806 220.322C74.1119 220.285 74.3546 220.153 74.534 219.924C74.6945 219.681 74.8525 219.274 75.0082 218.704L75.5916 216.669C76.041 215.098 76.6243 213.925 77.3415 213.15C78.0396 212.359 78.9749 211.894 80.1474 211.753C81.7447 211.561 83.0895 211.995 84.1816 213.053C85.2718 214.095 85.9238 215.508 86.1378 217.292C86.3171 218.787 86.1467 220.169 85.6266 221.438C85.0875 222.692 84.2684 223.695 83.1692 224.448Z" fill="url(#paint12_linear_234_583)"/>
<path d="M185.141 72.8801L197.367 71.8237L197.466 72.9746L191.638 89.325L186.856 89.7383L191.878 76.2919L185.484 76.8444L185.141 72.8801ZM199.153 80.0437C198.931 77.469 199.356 75.3365 200.43 73.6461C201.521 71.9543 203.183 71.0119 205.416 70.8189C207.65 70.6259 209.441 71.27 210.788 72.7511C212.153 74.2308 212.947 76.2579 213.169 78.8326C213.394 81.4414 212.965 83.6258 211.88 85.3858C210.795 87.1458 209.145 88.1216 206.928 88.3131C204.711 88.5046 202.918 87.8265 201.547 86.2786C200.177 84.7308 199.379 82.6525 199.153 80.0437ZM208.67 79.2471C208.533 77.6614 208.228 76.5196 207.755 75.8218C207.281 75.1069 206.618 74.7863 205.766 74.86C204.913 74.9336 204.315 75.3633 203.97 76.1489C203.624 76.9174 203.52 78.0946 203.657 79.6803C203.934 82.8859 204.908 84.4164 206.579 84.2721C208.25 84.1277 208.947 82.4527 208.67 79.2471ZM224.056 86.5239L222.597 69.6436L234.055 68.6535L234.398 72.6178L227.339 73.2278L227.617 76.4504L233.346 75.9554L233.689 79.9197L227.96 80.4147L228.455 86.1438L224.056 86.5239ZM236.518 81.9428L239.29 79.4357C239.897 80.1047 240.507 80.6017 241.119 80.9267C241.73 81.2347 242.436 81.3541 243.238 81.2848C244.397 81.1847 244.941 80.7253 244.871 79.9069C244.84 79.5488 244.705 79.2856 244.467 79.1172C244.23 78.9488 243.748 78.7413 243.022 78.4948L241.217 77.8778C238.26 76.8621 236.69 75.2885 236.506 73.1572C236.378 71.6738 236.819 70.4245 237.831 69.4095C238.86 68.393 240.244 67.8096 241.983 67.6593C244.711 67.4236 246.736 68.391 248.057 70.5615L245.31 73.0664C244.829 72.4723 244.364 72.0573 243.914 71.8213C243.463 71.5683 242.947 71.4668 242.368 71.5169C241.362 71.6038 240.89 72.0054 240.952 72.7215C240.978 73.0284 241.102 73.2753 241.325 73.4623C241.563 73.6307 241.964 73.8021 242.529 73.9766L244.543 74.6271C246.098 75.1284 247.251 75.7502 248.003 76.4927C248.77 77.2166 249.204 78.1668 249.305 79.3433C249.444 80.9461 248.966 82.2757 247.872 83.3323C246.795 84.3873 245.362 84.9922 243.571 85.1469C242.071 85.2765 240.695 85.0604 239.444 84.4986C238.209 83.9182 237.233 83.0663 236.518 81.9428Z" fill="url(#paint13_linear_234_583)"/>
<path d="M266.793 375.863L261.568 376.207L261.325 372.518L274.26 371.642L274.319 372.539L268.684 379.572C267.431 381.13 266.839 382.421 266.906 383.445C266.945 384.043 267.138 384.502 267.485 384.822C267.832 385.142 268.27 385.285 268.8 385.25C269.329 385.216 269.744 385.008 270.045 384.628C270.329 384.249 270.45 383.744 270.409 383.112C270.385 382.754 270.326 382.38 270.232 381.992L274.664 381.7C274.814 382.154 274.905 382.628 274.937 383.123C275.07 384.624 274.569 386.003 273.434 387.261C272.283 388.537 270.802 389.218 268.989 389.303C267.23 389.418 265.727 388.986 264.479 388.004C263.214 387.024 262.529 385.74 262.424 384.152C262.352 383.042 262.572 381.964 263.087 380.918C263.602 379.889 264.464 378.649 265.672 377.198L266.793 375.863ZM246.825 379.183C246.712 377.458 247.267 375.981 248.489 374.751C249.713 373.539 251.281 372.87 253.194 372.744C254.68 372.646 256.027 372.918 257.235 373.559C258.427 374.201 259.354 375.135 260.018 376.36L257.111 378.712C256.548 377.978 256.008 377.456 255.49 377.147C254.957 376.856 254.34 376.734 253.639 376.78C252.905 376.828 252.327 377.029 251.904 377.382C251.482 377.753 251.291 378.237 251.331 378.835C251.406 379.979 252.417 380.487 254.364 380.359L258.385 380.095L259.014 389.65L248.536 390.339L248.275 386.368L254.577 385.954L254.447 383.981C253.858 384.14 253.323 384.235 252.845 384.267C251.379 384.398 250.031 383.98 248.801 383.015C247.554 382.051 246.896 380.773 246.825 379.183ZM236.549 374.147L237.66 391.054L226.184 391.808L225.923 387.838L232.993 387.373L232.781 384.145L227.043 384.522L226.782 380.552L232.52 380.175L232.143 374.437L236.549 374.147ZM223.995 378.471L221.172 380.921C220.578 380.239 219.979 379.73 219.374 379.392C218.769 379.072 218.066 378.938 217.263 378.991C216.102 379.067 215.548 379.515 215.602 380.335C215.626 380.694 215.755 380.96 215.989 381.133C216.224 381.306 216.701 381.523 217.421 381.785L219.214 382.439C222.149 383.515 223.686 385.12 223.827 387.255C223.924 388.741 223.457 389.981 222.425 390.975C221.375 391.97 219.98 392.525 218.238 392.639C215.505 392.819 213.501 391.81 212.225 389.613L215.022 387.165C215.491 387.769 215.947 388.193 216.392 388.439C216.838 388.701 217.352 388.813 217.932 388.775C218.94 388.708 219.42 388.317 219.373 387.599C219.353 387.292 219.233 387.043 219.015 386.851C218.781 386.678 218.383 386.498 217.822 386.312L215.821 385.62C214.277 385.087 213.137 384.442 212.401 383.684C211.649 382.945 211.234 381.986 211.157 380.807C211.051 379.202 211.556 377.883 212.672 376.849C213.77 375.816 215.216 375.241 217.009 375.123C218.512 375.024 219.883 375.268 221.122 375.856C222.345 376.461 223.303 377.333 223.995 378.471Z" fill="url(#paint14_linear_234_583)"/>
<path d="M109.708 144.752C111.055 145.836 111.767 147.243 111.846 148.975C111.911 150.697 111.343 152.305 110.142 153.798C109.209 154.959 108.098 155.767 106.808 156.224C105.529 156.667 104.214 156.718 102.863 156.378L103.097 152.646C104.019 152.729 104.768 152.684 105.346 152.511C105.921 152.315 106.429 151.943 106.868 151.397C107.33 150.823 107.573 150.261 107.598 149.711C107.61 149.149 107.383 148.681 106.916 148.306C106.023 147.587 104.965 147.988 103.742 149.508L101.216 152.649L93.754 146.649L100.334 138.467L103.435 140.96L99.4771 145.881L101.018 147.12C101.3 146.578 101.591 146.121 101.891 145.747C102.787 144.579 104.006 143.868 105.549 143.615C107.102 143.349 108.489 143.728 109.708 144.752ZM120.368 140.59L107.164 129.972L114.371 121.01L117.472 123.503L113.032 129.025L115.553 131.052L119.156 126.57L122.257 129.064L118.654 133.545L123.135 137.149L120.368 140.59ZM125.674 128.419L125.78 124.683C126.683 124.706 127.464 124.609 128.122 124.392C128.767 124.164 129.341 123.736 129.845 123.109C130.575 122.202 130.619 121.491 129.979 120.977C129.699 120.751 129.416 120.667 129.13 120.722C128.843 120.777 128.36 120.982 127.681 121.336L125.987 122.214C123.209 123.647 120.986 123.694 119.319 122.353C118.159 121.42 117.561 120.237 117.528 118.805C117.504 117.359 118.04 115.955 119.134 114.595C120.85 112.461 122.949 111.667 125.43 112.213L125.341 115.929C124.579 115.866 123.958 115.915 123.476 116.077C122.981 116.228 122.552 116.531 122.187 116.984C121.554 117.771 121.518 118.39 122.078 118.84C122.318 119.033 122.582 119.114 122.871 119.083C123.157 119.027 123.559 118.856 124.075 118.568L125.938 117.563C127.375 116.786 128.622 116.383 129.678 116.353C130.731 116.3 131.718 116.643 132.638 117.383C133.892 118.391 134.522 119.656 134.529 121.176C134.546 122.684 133.992 124.138 132.866 125.538C131.922 126.712 130.815 127.557 129.544 128.072C128.271 128.563 126.981 128.679 125.674 128.419Z" fill="url(#paint15_linear_234_583)"/>
<path d="M146.533 355.756C147.686 354.469 149.13 353.832 150.864 353.846C152.587 353.873 154.162 354.526 155.589 355.805C156.698 356.798 157.446 357.951 157.833 359.263C158.207 360.564 158.189 361.88 157.777 363.211L154.063 362.779C154.194 361.862 154.189 361.111 154.048 360.525C153.883 359.94 153.539 359.414 153.016 358.945C152.468 358.454 151.92 358.181 151.372 358.127C150.812 358.085 150.332 358.287 149.932 358.733C149.167 359.587 149.511 360.665 150.964 361.967L153.966 364.656L147.576 371.788L139.756 364.781L142.411 361.818L147.115 366.032L148.434 364.56C147.908 364.249 147.466 363.934 147.109 363.614C145.99 362.658 145.346 361.402 145.176 359.848C144.993 358.283 145.445 356.918 146.533 355.756ZM142.87 356.369C141.146 358.294 139.3 359.444 137.333 359.818C135.353 360.181 133.528 359.615 131.858 358.118C130.189 356.622 129.432 354.876 129.59 352.88C129.734 350.872 130.668 348.906 132.393 346.981C134.14 345.031 136.027 343.849 138.052 343.435C140.078 343.021 141.919 343.556 143.576 345.041C145.233 346.526 145.967 348.297 145.777 350.356C145.587 352.415 144.618 354.419 142.87 356.369ZM135.775 349.977C134.713 351.163 134.089 352.166 133.904 352.989C133.708 353.824 133.928 354.527 134.565 355.098C135.203 355.669 135.925 355.811 136.734 355.524C137.531 355.25 138.46 354.52 139.523 353.335C141.67 350.939 142.119 349.181 140.87 348.062C139.62 346.942 137.922 347.581 135.775 349.977ZM130.547 333.78L119.24 346.399L110.675 338.724L113.33 335.761L118.607 340.489L120.766 338.08L116.483 334.242L119.138 331.279L123.421 335.116L127.259 330.834L130.547 333.78ZM118.677 327.832L114.951 327.527C115.023 326.626 114.968 325.842 114.786 325.173C114.592 324.517 114.196 323.921 113.597 323.384C112.73 322.607 112.023 322.525 111.475 323.137C111.235 323.404 111.135 323.682 111.175 323.971C111.215 324.26 111.394 324.753 111.711 325.451L112.497 327.189C113.78 330.04 113.708 332.262 112.281 333.855C111.287 334.964 110.074 335.497 108.641 335.454C107.196 335.4 105.824 334.791 104.523 333.626C102.484 331.798 101.803 329.66 102.481 327.211L106.187 327.499C106.083 328.256 106.099 328.879 106.235 329.369C106.36 329.871 106.639 330.316 107.072 330.705C107.824 331.378 108.44 331.448 108.92 330.912C109.125 330.683 109.22 330.423 109.204 330.133C109.164 329.844 109.014 329.435 108.755 328.903L107.85 326.99C107.151 325.513 106.815 324.247 106.842 323.191C106.845 322.136 107.24 321.169 108.028 320.29C109.102 319.091 110.398 318.53 111.917 318.604C113.423 318.667 114.846 319.298 116.184 320.497C117.306 321.502 118.09 322.653 118.537 323.949C118.959 325.247 119.006 326.541 118.677 327.832Z" fill="url(#paint16_linear_234_583)"/>
<path d="M308.556 96.4296C310.168 94.4094 311.945 93.1561 313.887 92.6696C315.843 92.1938 317.698 92.6549 319.45 94.0531C321.203 95.4512 322.058 97.1513 322.015 99.1533C321.986 101.166 321.165 103.182 319.554 105.203C317.921 107.25 316.105 108.538 314.107 109.067C312.108 109.596 310.239 109.167 308.5 107.78C306.761 106.392 305.927 104.666 305.999 102.599C306.071 100.533 306.923 98.4766 308.556 96.4296ZM316.006 102.405C316.998 101.161 317.564 100.123 317.701 99.2916C317.85 98.4467 317.59 97.7575 316.921 97.2239C316.252 96.6902 315.522 96.5897 314.731 96.9222C313.951 97.2414 313.065 98.023 312.072 99.2673C310.066 101.783 309.718 103.563 311.029 104.609C312.341 105.655 313.999 104.92 316.006 102.405ZM322.152 118.276L332.718 105.031L341.709 112.203L339.227 115.314L333.689 110.896L331.671 113.424L336.167 117.01L333.685 120.121L329.19 116.535L325.604 121.03L322.152 118.276ZM334.343 123.536L338.08 123.627C338.06 124.53 338.16 125.31 338.38 125.968C338.611 126.611 339.041 127.184 339.669 127.686C340.579 128.412 341.29 128.453 341.802 127.811C342.027 127.53 342.11 127.247 342.054 126.961C341.997 126.675 341.791 126.193 341.434 125.514L340.55 123.824C339.106 121.051 339.05 118.829 340.384 117.157C341.313 115.993 342.494 115.391 343.926 115.351C345.372 115.323 346.777 115.853 348.142 116.941C350.283 118.649 351.085 120.745 350.548 123.228L346.832 123.153C346.892 122.392 346.84 121.77 346.677 121.289C346.524 120.795 346.22 120.367 345.765 120.004C344.975 119.374 344.357 119.34 343.908 119.902C343.716 120.143 343.636 120.408 343.669 120.696C343.725 120.982 343.898 121.383 344.188 121.898L345.201 123.757C345.983 125.191 346.391 126.436 346.425 127.492C346.482 128.545 346.143 129.533 345.406 130.456C344.403 131.714 343.141 132.349 341.62 132.362C340.113 132.385 338.657 131.837 337.252 130.716C336.075 129.777 335.226 128.673 334.706 127.404C334.209 126.132 334.089 124.843 334.343 123.536Z" fill="url(#paint17_linear_234_583)"/>
<path d="M359.919 309.465L357.063 307.119L358.317 305.591L356.373 303.994L359.176 300.583L361.12 302.179L366.432 295.713L367.325 296.446L374.37 308.779L371.486 312.29L365.818 302.285L363.977 304.526L367.19 307.166L364.387 310.578L361.174 307.938L359.919 309.465ZM360.807 312.145C362.804 313.786 364.032 315.581 364.49 317.53C364.938 319.492 364.45 321.34 363.027 323.072C361.604 324.804 359.892 325.635 357.891 325.564C355.879 325.505 353.874 324.656 351.877 323.016C349.854 321.354 348.592 319.52 348.091 317.514C347.591 315.508 348.047 313.645 349.459 311.926C350.871 310.207 352.61 309.398 354.675 309.5C356.74 309.601 358.784 310.483 360.807 312.145ZM354.725 319.508C355.955 320.518 356.985 321.099 357.814 321.248C358.657 321.409 359.35 321.159 359.893 320.497C360.436 319.836 360.547 319.108 360.226 318.312C359.918 317.528 359.149 316.631 357.919 315.62C355.433 313.578 353.658 313.205 352.593 314.501C351.528 315.797 352.239 317.466 354.725 319.508ZM338.767 325.426L351.859 336.181L344.559 345.068L341.484 342.542L345.982 337.067L343.483 335.014L339.832 339.457L336.758 336.932L340.408 332.488L335.965 328.838L338.767 325.426ZM333.334 337.541L333.189 341.276C332.286 341.242 331.504 341.331 330.844 341.542C330.197 341.763 329.618 342.185 329.108 342.806C328.369 343.706 328.317 344.416 328.952 344.937C329.229 345.166 329.512 345.253 329.798 345.201C330.085 345.149 330.57 344.949 331.254 344.602L332.957 343.742C335.75 342.338 337.972 342.315 339.626 343.673C340.776 344.618 341.361 345.807 341.38 347.24C341.388 348.686 340.837 350.084 339.729 351.432C337.991 353.548 335.884 354.32 333.408 353.748L333.537 350.033C334.298 350.104 334.92 350.062 335.403 349.905C335.899 349.759 336.332 349.461 336.701 349.011C337.342 348.231 337.385 347.613 336.83 347.157C336.592 346.961 336.328 346.878 336.039 346.906C335.752 346.958 335.349 347.125 334.83 347.407L332.957 348.394C331.511 349.155 330.261 349.545 329.204 349.564C328.151 349.606 327.168 349.253 326.255 348.503C325.012 347.482 324.395 346.211 324.404 344.69C324.402 343.182 324.972 341.734 326.112 340.346C327.068 339.182 328.184 338.349 329.461 337.847C330.739 337.369 332.03 337.267 333.334 337.541Z" fill="url(#paint18_linear_234_583)"/>
<defs>
<linearGradient id="paint0_linear_234_583" x1="231.381" y1="440.895" x2="231.381" y2="21.1373" gradientUnits="userSpaceOnUse">
<stop stop-color="#F204CB"/>
<stop offset="0.48" stop-color="#B84BC2"/>
<stop offset="1" stop-color="#BF1692"/>
</linearGradient>
<linearGradient id="paint1_linear_234_583" x1="231.38" y1="438.19" x2="231.38" y2="23.8335" gradientUnits="userSpaceOnUse">
<stop stop-color="#AB05F2"/>
<stop offset="0.48" stop-color="#3D0773"/>
<stop offset="1" stop-color="#AB05F2"/>
</linearGradient>
<linearGradient id="paint2_linear_234_583" x1="231.362" y1="419.16" x2="231.362" y2="42.8444" gradientUnits="userSpaceOnUse">
<stop stop-color="#490057"/>
<stop offset="1" stop-color="#5D006E"/>
</linearGradient>
<linearGradient id="paint3_linear_234_583" x1="231.815" y1="231.581" x2="86.322" y2="119.084" gradientUnits="userSpaceOnUse">
<stop stop-color="#FF00CC"/>
<stop offset="1" stop-color="#4B0082"/>
</linearGradient>
<linearGradient id="paint4_linear_234_583" x1="230.473" y1="230.519" x2="225.504" y2="46.9949" gradientUnits="userSpaceOnUse">
<stop stop-color="#FF00CC"/>
<stop offset="1" stop-color="#F4A6B3"/>
</linearGradient>
<linearGradient id="paint5_linear_234_583" x1="230.472" y1="230.519" x2="255.802" y2="87.581" gradientUnits="userSpaceOnUse">
<stop stop-color="#FF00CC"/>
<stop offset="1" stop-color="#4B0082"/>
</linearGradient>
<linearGradient id="paint6_linear_234_583" x1="229.513" y1="229.35" x2="343.724" y2="127.132" gradientUnits="userSpaceOnUse">
<stop stop-color="#FF00CC"/>
<stop offset="1" stop-color="#F4A6B3"/>
</linearGradient>
<linearGradient id="paint7_linear_234_583" x1="230.472" y1="230.519" x2="395.86" y2="311.965" gradientUnits="userSpaceOnUse">
<stop stop-color="#FF00CC"/>
<stop offset="1" stop-color="#4B0082"/>
</linearGradient>
<linearGradient id="paint8_linear_234_583" x1="230.472" y1="230.519" x2="248.052" y2="415.958" gradientUnits="userSpaceOnUse">
<stop stop-color="#FF00CC"/>
<stop offset="1" stop-color="#F4A6B3"/>
</linearGradient>
<linearGradient id="paint9_linear_234_583" x1="230.473" y1="230.519" x2="224.299" y2="373.815" gradientUnits="userSpaceOnUse">
<stop stop-color="#FF00CC"/>
<stop offset="1" stop-color="#4B0082"/>
</linearGradient>
<linearGradient id="paint10_linear_234_583" x1="230.473" y1="230.519" x2="125.04" y2="338.113" gradientUnits="userSpaceOnUse">
<stop stop-color="#FF00CC"/>
<stop offset="1" stop-color="#F4A6D6"/>
</linearGradient>
<linearGradient id="paint11_linear_234_583" x1="368.529" y1="247.666" x2="400.348" y2="200.071" gradientUnits="userSpaceOnUse">
<stop stop-color="#FF00CC"/>
<stop offset="1" stop-color="#4B0082"/>
</linearGradient>
<linearGradient id="paint12_linear_234_583" x1="93.0134" y1="208.743" x2="68.2623" y2="255.97" gradientUnits="userSpaceOnUse">
<stop stop-color="#FF00CC"/>
<stop offset="1" stop-color="#4B0082"/>
</linearGradient>
<linearGradient id="paint13_linear_234_583" x1="252.212" y1="92.274" x2="204.415" y2="62.7628" gradientUnits="userSpaceOnUse">
<stop stop-color="#FF00CC"/>
<stop offset="1" stop-color="#4B0082"/>
</linearGradient>
<linearGradient id="paint14_linear_234_583" x1="208.655" y1="367.811" x2="255.835" y2="398.298" gradientUnits="userSpaceOnUse">
<stop stop-color="#FF00CC"/>
<stop offset="1" stop-color="#4B0082"/>
</linearGradient>
<linearGradient id="paint15_linear_234_583" x1="143.936" y1="124.29" x2="100.245" y2="141.34" gradientUnits="userSpaceOnUse">
<stop stop-color="#F49AB5"/>
<stop offset="1" stop-color="white"/>
</linearGradient>
<linearGradient id="paint16_linear_234_583" x1="115.665" y1="309.499" x2="126.579" y2="365.156" gradientUnits="userSpaceOnUse">
<stop stop-color="#F49AB5"/>
<stop offset="1" stop-color="white"/>
</linearGradient>
<linearGradient id="paint17_linear_234_583" x1="338.555" y1="141.79" x2="321.59" y2="96.6074" gradientUnits="userSpaceOnUse">
<stop stop-color="#F49AB5"/>
<stop offset="1" stop-color="white"/>
</linearGradient>
<linearGradient id="paint18_linear_234_583" x1="315.03" y1="341.478" x2="370.783" y2="328.459" gradientUnits="userSpaceOnUse">
<stop stop-color="#F49AB5"/>
<stop offset="1" stop-color="white"/>
</linearGradient>
</defs>
</svg>
