<svg width="717" height="716" viewBox="0 0 717 716" fill="none" xmlns="http://www.w3.org/2000/svg">
<path d="M360.543 21.9195C175.147 21.9195 24.8063 172.199 24.8063 357.656C24.8063 543.113 175.085 693.392 360.543 693.392C546 693.392 696.279 543.051 696.279 357.656C696.279 172.26 546 21.9195 360.543 21.9195ZM360.543 688.887C177.616 688.887 29.3116 540.583 29.3116 357.656C29.3116 174.729 177.616 26.4247 360.543 26.4247C543.47 26.4247 691.774 174.729 691.774 357.656C691.774 540.583 543.47 688.887 360.543 688.887Z" fill="url(#paint0_linear_234_562)"/>
<path d="M692.021 357.65C692.021 540.701 543.655 689.067 360.605 689.067C177.555 689.067 29.1887 540.701 29.1887 357.65C29.1887 174.6 177.555 26.2342 360.605 26.2342C543.655 26.2342 692.021 174.6 692.021 357.65Z" fill="url(#paint1_linear_234_562)"/>
<path d="M661.273 370.161C668.176 204.072 539.13 63.8347 373.041 56.9316C206.953 50.0285 66.7149 179.074 59.8117 345.163C52.9086 511.252 181.954 651.489 348.043 658.392C514.132 665.296 654.37 536.25 661.273 370.161Z" fill="url(#paint2_linear_234_562)"/>
<path d="M655.18 357.654C655.18 520.338 523.292 652.225 360.608 652.225C197.924 652.225 66.0366 520.338 66.0366 357.654C66.0366 194.97 197.924 63.0822 360.608 63.0822C523.292 63.0822 655.18 194.97 655.18 357.654Z" fill="#3D0773"/>
<path d="M510.09 617.661C465.847 643.322 414.456 658.007 359.638 658.007C359.315 658.007 358.992 658.007 358.67 658V355.398L510.09 617.661Z" fill="url(#paint3_linear_234_562)"/>
<path d="M620.526 506.58C594.175 552.642 555.985 591.052 510.09 617.661L358.67 355.398L620.526 506.58Z" fill="url(#paint4_linear_234_562)"/>
<path d="M659.988 357.657C659.988 411.849 645.638 462.686 620.526 506.58L358.67 355.398H659.975C659.988 356.153 659.988 356.902 659.988 357.657Z" fill="url(#paint5_linear_234_562)"/>
<path d="M659.975 355.399H358.67L618.558 205.353C644.528 249.402 659.575 300.658 659.975 355.399Z" fill="url(#paint6_linear_234_562)"/>
<path d="M618.558 205.346L358.67 355.399L508.129 96.5231C553.759 122.526 591.911 160.142 618.558 205.346Z" fill="url(#paint7_linear_234_562)"/>
<path d="M508.129 96.5237L358.67 355.399V57.3137C358.992 57.3072 359.315 57.3072 359.638 57.3072C413.649 57.3072 464.331 71.5666 508.129 96.5237Z" fill="url(#paint8_linear_234_562)"/>
<path d="M358.67 57.3114V355.397L209.689 97.3538C253.558 72.0289 304.42 57.4792 358.67 57.3114Z" fill="url(#paint9_linear_234_562)"/>
<path d="M358.669 355.4L100.226 206.186C126.615 161.086 164.425 123.489 209.687 97.3571L358.669 355.4Z" fill="url(#paint10_linear_234_562)"/>
<path d="M358.671 355.4H59.301C59.6945 301.008 74.554 250.049 100.227 206.187L358.671 355.4Z" fill="url(#paint11_linear_234_562)"/>
<path d="M358.67 355.398L98.2718 505.741C73.4566 462.04 59.2876 411.5 59.2876 357.657C59.2876 356.902 59.2876 356.153 59.3005 355.398H358.67Z" fill="url(#paint12_linear_234_562)"/>
<path d="M358.67 355.398L207.74 616.816C162.213 590.078 124.358 551.687 98.2718 505.741L358.67 355.398Z" fill="url(#paint13_linear_234_562)"/>
<path d="M358.671 355.398V658C303.614 657.833 252.048 642.844 207.741 616.816L358.671 355.398Z" fill="url(#paint14_linear_234_562)"/>
<circle cx="358.381" cy="355.131" r="226.469" fill="black"/>
<circle cx="358.381" cy="358.016" r="239.09" stroke="#FF168E" stroke-width="3.60619"/>
<path d="M254.971 98.6338C255.157 99.3148 255.186 99.9587 255.06 100.566C254.945 101.169 254.705 101.947 254.34 102.898L252.398 107.84L248.628 108.871L250.348 104.429C249.32 104.564 248.334 104.341 247.39 103.761C246.455 103.165 245.834 102.303 245.526 101.177C245.156 99.9204 245.332 98.7146 246.054 97.559C246.776 96.4035 247.759 95.6688 249.004 95.355C250.279 95.0063 251.501 95.1445 252.67 95.7697C253.848 96.3791 254.615 97.3338 254.971 98.6338ZM251.808 99.4786C251.683 99.0205 251.423 98.679 251.029 98.4541C250.647 98.2258 250.24 98.1709 249.806 98.2894C249.373 98.4079 249.044 98.6642 248.819 99.0584C248.607 99.4492 248.563 99.8736 248.688 100.332C248.813 100.79 249.065 101.127 249.444 101.343C249.834 101.555 250.247 101.602 250.68 101.484C251.126 101.362 251.456 101.112 251.672 100.733C251.885 100.343 251.93 99.9243 251.808 99.4786ZM262.148 98.4876C261.637 96.618 261.663 94.9873 262.227 93.5955C262.804 92.2002 263.903 91.2809 265.525 90.8374C267.147 90.3939 268.555 90.6276 269.749 91.5387C270.955 92.4464 271.814 93.835 272.325 95.7046C272.843 97.5989 272.821 99.2685 272.258 100.713C271.695 102.158 270.608 103.1 268.999 103.541C267.389 103.981 265.975 103.722 264.755 102.765C263.535 101.808 262.666 100.382 262.148 98.4876ZM269.062 96.617C268.747 95.4655 268.368 94.6642 267.925 94.2131C267.479 93.7496 266.947 93.6024 266.328 93.7717C265.709 93.941 265.325 94.3387 265.177 94.9647C265.025 95.5783 265.107 96.4609 265.422 97.6123C266.058 99.94 266.983 100.938 268.197 100.606C269.41 100.274 269.698 98.9447 269.062 96.617ZM274.191 95.1945C273.68 93.325 273.706 91.6943 274.27 90.3024C274.847 88.9072 275.946 87.9879 277.568 87.5443C279.19 87.1008 280.598 87.3346 281.792 88.2457C282.998 89.1534 283.857 90.542 284.368 92.4116C284.886 94.3059 284.864 95.9754 284.301 97.4202C283.738 98.8649 282.651 99.8074 281.042 100.248C279.432 100.688 278.017 100.429 276.798 99.4719C275.578 98.5147 274.709 97.0889 274.191 95.1945ZM281.105 93.3239C280.79 92.1725 280.411 91.3712 279.968 90.9201C279.522 90.4565 278.989 90.3094 278.37 90.4787C277.751 90.648 277.368 91.0456 277.22 91.6717C277.068 92.2853 277.15 93.1679 277.464 94.3193C278.101 96.647 279.026 97.6449 280.239 97.3131C281.453 96.9814 281.741 95.6516 281.105 93.3239ZM286.233 91.9015C285.722 90.0319 285.749 88.4012 286.313 87.0094C286.889 85.6142 287.989 84.6948 289.611 84.2513C291.233 83.8078 292.641 84.0416 293.835 84.9527C295.041 85.8603 295.9 87.249 296.411 89.1185C296.929 91.0129 296.906 92.6824 296.343 94.1272C295.78 95.5719 294.694 96.5143 293.084 96.9545C291.475 97.3946 290.06 97.1361 288.84 96.1788C287.62 95.2216 286.751 93.7958 286.233 91.9015ZM293.147 90.0309C292.832 88.8795 292.454 88.0782 292.011 87.627C291.565 87.1635 291.032 87.0164 290.413 87.1857C289.794 87.3549 289.41 87.7526 289.262 88.3786C289.111 88.9923 289.192 89.8748 289.507 91.0263C290.144 93.354 291.069 94.3519 292.282 94.0201C293.495 93.6883 293.784 92.3586 293.147 90.0309ZM303.481 87.1851C302.97 85.3156 302.997 83.6849 303.561 82.293C304.137 80.8978 305.237 79.9784 306.859 79.5349C308.481 79.0914 309.888 79.3252 311.082 80.2363C312.289 81.144 313.148 82.5326 313.659 84.4022C314.177 86.2965 314.154 87.966 313.591 89.4108C313.028 90.8555 311.942 91.798 310.332 92.2381C308.723 92.6782 307.308 92.4197 306.088 91.4625C304.868 90.5052 303.999 89.0795 303.481 87.1851ZM310.395 85.3145C310.08 84.1631 309.702 83.3618 309.259 82.9106C308.813 82.4471 308.28 82.3 307.661 82.4693C307.042 82.6386 306.658 83.0362 306.51 83.6623C306.359 84.2759 306.44 85.1585 306.755 86.3099C307.392 88.6376 308.316 89.6355 309.53 89.3037C310.743 88.972 311.032 87.6422 310.395 85.3145ZM315.524 83.8921C315.013 82.0225 315.039 80.3918 315.604 79C316.18 77.6048 317.279 76.6854 318.901 76.2419C320.523 75.7984 321.931 76.0322 323.125 76.9432C324.331 77.8509 325.19 79.2396 325.701 81.1091C326.219 83.0035 326.197 84.673 325.634 86.1178C325.071 87.5625 323.985 88.5049 322.375 88.9451C320.765 89.3852 319.351 89.1267 318.131 88.1694C316.911 87.2122 316.042 85.7864 315.524 83.8921ZM322.438 82.0215C322.123 80.8701 321.744 80.0688 321.301 79.6176C320.855 79.1541 320.323 79.007 319.704 79.1763C319.085 79.3455 318.701 79.7432 318.553 80.3692C318.401 80.9829 318.483 81.8654 318.798 83.0169C319.434 85.3446 320.359 86.3425 321.573 86.0107C322.786 85.6789 323.074 84.3492 322.438 82.0215ZM327.567 80.5991C327.056 78.7295 327.082 77.0988 327.646 75.707C328.223 74.3118 329.322 73.3924 330.944 72.9489C332.566 72.5054 333.974 72.7391 335.168 73.6502C336.374 74.5579 337.233 75.9465 337.744 77.8161C338.262 79.7104 338.24 81.38 337.677 82.8247C337.114 84.2695 336.027 85.2119 334.418 85.652C332.808 86.0922 331.393 85.8336 330.174 84.8764C328.954 83.9192 328.085 82.4934 327.567 80.5991ZM334.481 78.7285C334.166 77.577 333.787 76.7757 333.344 76.3246C332.898 75.8611 332.365 75.7139 331.746 75.8832C331.127 76.0525 330.744 76.4502 330.596 77.0762C330.444 77.6898 330.526 78.5724 330.84 79.7238C331.477 82.0515 332.402 83.0495 333.615 82.7177C334.829 82.3859 335.117 81.0562 334.481 78.7285ZM281.273 114.053L279.343 106.996L282.538 106.122L284.534 113.421C284.723 114.115 285.078 114.61 285.598 114.906C286.115 115.191 286.708 115.242 287.377 115.059C288.045 114.876 288.53 114.531 288.83 114.023C289.127 113.503 289.18 112.896 288.991 112.202L286.995 104.904L290.189 104.03L292.119 111.087C292.556 112.685 292.399 114.131 291.649 115.428C290.896 116.712 289.739 117.567 288.179 117.993C286.594 118.427 285.159 118.287 283.873 117.574C282.583 116.849 281.717 115.675 281.273 114.053ZM298.976 111.708L304.38 110.23L305.167 113.108L294.916 115.912L294.687 115.076L297.718 105.065L293.15 106.315L292.362 103.436L301.797 100.856L302.025 101.692L298.976 111.708ZM305.329 110.35L307.037 108.126C307.575 108.538 308.092 108.822 308.588 108.98C309.08 109.124 309.617 109.117 310.199 108.958C311.04 108.728 311.38 108.316 311.218 107.721C311.147 107.461 311.012 107.285 310.814 107.193C310.615 107.101 310.232 107.013 309.664 106.929L308.248 106.717C305.93 106.366 304.559 105.417 304.136 103.869C303.842 102.792 303.999 101.811 304.609 100.926C305.231 100.037 306.173 99.4199 307.436 99.0746C309.417 98.5329 311.041 98.9737 312.309 100.397L310.62 102.615C310.185 102.242 309.786 101.998 309.422 101.885C309.055 101.759 308.661 101.754 308.24 101.869C307.509 102.069 307.215 102.428 307.358 102.948C307.418 103.171 307.544 103.337 307.733 103.445C307.931 103.537 308.25 103.609 308.69 103.662L310.264 103.87C311.479 104.03 312.414 104.334 313.068 104.78C313.731 105.211 314.18 105.853 314.414 106.708C314.732 107.872 314.559 108.917 313.894 109.844C313.242 110.768 312.265 111.407 310.965 111.763C309.876 112.06 308.832 112.086 307.833 111.841C306.843 111.579 306.009 111.082 305.329 110.35Z" fill="url(#paint15_linear_234_562)"/>
<path d="M533.279 134.161L534.061 134.876L525.48 144.249L523.037 142.013L528.966 135.537L526.894 134.606L528.288 131.915L533.279 134.161ZM531.682 141.182C532.991 139.753 534.384 138.905 535.863 138.64C537.35 138.384 538.714 138.823 539.954 139.959C541.195 141.094 541.748 142.41 541.614 143.906C541.49 145.41 540.773 146.877 539.464 148.307C538.138 149.755 536.714 150.627 535.192 150.921C533.669 151.215 532.293 150.799 531.062 149.672C529.831 148.546 529.295 147.211 529.454 145.669C529.613 144.126 530.356 142.631 531.682 141.182ZM536.952 146.033C537.758 145.152 538.234 144.404 538.379 143.789C538.533 143.165 538.374 142.636 537.9 142.202C537.427 141.769 536.886 141.657 536.277 141.865C535.677 142.064 534.974 142.604 534.168 143.485C532.539 145.264 532.188 146.579 533.116 147.429C534.044 148.278 535.322 147.813 536.952 146.033ZM540.891 149.613C542.199 148.183 543.593 147.336 545.071 147.07C546.559 146.814 547.923 147.254 549.163 148.389C550.403 149.524 550.957 150.84 550.823 152.336C550.698 153.84 549.982 155.307 548.673 156.737C547.347 158.186 545.923 159.057 544.4 159.351C542.878 159.646 541.501 159.229 540.27 158.103C539.04 156.976 538.504 155.641 538.663 154.099C538.822 152.557 539.565 151.061 540.891 149.613ZM546.161 154.463C546.967 153.583 547.442 152.835 547.588 152.22C547.742 151.595 547.582 151.066 547.109 150.633C546.636 150.199 546.095 150.087 545.486 150.296C544.886 150.495 544.183 151.034 543.377 151.915C541.748 153.695 541.397 155.009 542.325 155.859C543.252 156.708 544.531 156.243 546.161 154.463ZM554.08 161.687C555.388 160.257 556.782 159.41 558.26 159.145C559.748 158.888 561.112 159.328 562.352 160.463C563.592 161.599 564.146 162.914 564.012 164.41C563.887 165.915 563.171 167.382 561.862 168.811C560.536 170.26 559.112 171.131 557.589 171.426C556.067 171.72 554.69 171.304 553.459 170.177C552.229 169.05 551.693 167.716 551.852 166.173C552.011 164.631 552.754 163.135 554.08 161.687ZM559.35 166.537C560.156 165.657 560.631 164.909 560.777 164.294C560.931 163.669 560.771 163.14 560.298 162.707C559.825 162.274 559.284 162.161 558.675 162.37C558.075 162.569 557.372 163.109 556.566 163.989C554.937 165.769 554.586 167.084 555.514 167.933C556.441 168.782 557.72 168.317 559.35 166.537ZM563.288 170.117C564.597 168.687 565.991 167.84 567.469 167.575C568.957 167.319 570.321 167.758 571.561 168.893C572.801 170.029 573.354 171.345 573.22 172.84C573.096 174.345 572.379 175.812 571.071 177.242C569.745 178.69 568.32 179.562 566.798 179.856C565.275 180.15 563.899 179.734 562.668 178.607C561.437 177.48 560.901 176.146 561.061 174.603C561.22 173.061 561.962 171.566 563.288 170.117ZM568.558 174.968C569.364 174.087 569.84 173.339 569.986 172.724C570.14 172.1 569.98 171.571 569.507 171.137C569.033 170.704 568.492 170.592 567.884 170.8C567.284 170.999 566.581 171.539 565.775 172.419C564.145 174.199 563.794 175.514 564.722 176.363C565.65 177.213 566.929 176.748 568.558 174.968ZM572.497 178.547C573.806 177.118 575.199 176.27 576.678 176.005C578.165 175.749 579.529 176.188 580.77 177.324C582.01 178.459 582.563 179.775 582.429 181.271C582.305 182.775 581.588 184.242 580.279 185.672C578.953 187.121 577.529 187.992 576.007 188.286C574.484 188.581 573.108 188.164 571.877 187.038C570.646 185.911 570.11 184.576 570.269 183.034C570.428 181.491 571.171 179.996 572.497 178.547ZM577.767 183.398C578.573 182.518 579.049 181.77 579.194 181.155C579.348 180.53 579.189 180.001 578.715 179.568C578.242 179.134 577.701 179.022 577.092 179.23C576.492 179.43 575.789 179.969 574.983 180.85C573.354 182.63 573.003 183.944 573.931 184.794C574.859 185.643 576.137 185.178 577.767 183.398ZM527.204 164.278L532.145 158.882L534.587 161.118L529.478 166.699C528.993 167.229 528.763 167.793 528.789 168.392C528.825 168.981 529.098 169.509 529.609 169.977C530.12 170.445 530.671 170.671 531.26 170.654C531.859 170.628 532.401 170.349 532.886 169.819L537.996 164.238L540.438 166.474L535.498 171.871C534.38 173.092 533.072 173.731 531.576 173.788C530.088 173.836 528.748 173.313 527.555 172.221C526.343 171.112 525.696 169.823 525.613 168.355C525.538 166.877 526.069 165.518 527.204 164.278ZM538.63 178.001L542.763 181.785L540.748 183.986L532.909 176.809L533.494 176.17L543.578 173.395L540.085 170.197L542.1 167.995L549.314 174.6L548.729 175.239L538.63 178.001ZM543.168 182.651L545.959 182.91C545.898 183.585 545.933 184.174 546.065 184.677C546.204 185.17 546.497 185.621 546.942 186.028C547.586 186.617 548.116 186.685 548.532 186.23C548.714 186.032 548.791 185.824 548.763 185.607C548.735 185.39 548.605 185.019 548.373 184.493L547.798 183.183C546.858 181.035 546.93 179.369 548.013 178.186C548.767 177.362 549.681 176.972 550.755 177.015C551.839 177.068 552.863 177.536 553.829 178.42C555.344 179.807 555.837 181.416 555.309 183.247L552.532 183.001C552.616 182.434 552.609 181.967 552.511 181.599C552.422 181.221 552.216 180.885 551.894 180.59C551.335 180.079 550.874 180.022 550.51 180.42C550.354 180.59 550.281 180.784 550.291 181.002C550.318 181.218 550.427 181.527 550.618 181.928L551.281 183.37C551.793 184.483 552.035 185.435 552.007 186.227C551.996 187.018 551.692 187.74 551.094 188.393C550.279 189.283 549.302 189.694 548.164 189.626C547.034 189.567 545.973 189.083 544.979 188.172C544.146 187.41 543.567 186.54 543.242 185.564C542.935 184.588 542.911 183.617 543.168 182.651Z" fill="url(#paint16_linear_234_562)"/>
<path d="M632.645 397.067C631.394 396.724 630.484 395.968 629.913 394.8C629.354 393.635 629.265 392.359 629.646 390.973C629.942 389.896 630.465 389.008 631.216 388.309C631.964 387.623 632.853 387.195 633.885 387.025L634.838 389.663C634.179 389.881 633.676 390.136 633.33 390.427C632.993 390.734 632.755 391.141 632.615 391.648C632.469 392.181 632.469 392.64 632.616 393.026C632.775 393.416 633.072 393.671 633.505 393.79C634.334 394.017 634.943 393.426 635.33 392.015L636.13 389.1L643.056 391.001L640.97 398.595L638.093 397.805L639.347 393.237L637.917 392.845C637.885 393.302 637.821 393.704 637.726 394.05C637.458 395.121 636.832 395.974 635.845 396.609C634.856 397.255 633.789 397.408 632.645 397.067ZM634.282 399.32C636.151 399.834 637.541 400.688 638.45 401.883C639.357 403.09 639.587 404.504 639.142 406.126C638.697 407.747 637.778 408.839 636.386 409.402C634.99 409.977 633.357 410.008 631.488 409.495C629.594 408.975 628.17 408.104 627.214 406.883C626.258 405.662 626.001 404.247 626.443 402.638C626.885 401.029 627.828 399.944 629.273 399.383C630.719 398.821 632.388 398.8 634.282 399.32ZM632.367 406.222C633.518 406.538 634.401 406.621 635.014 406.47C635.641 406.322 636.039 405.939 636.209 405.32C636.379 404.701 636.232 404.169 635.769 403.722C635.318 403.279 634.517 402.899 633.366 402.583C631.039 401.944 629.709 402.231 629.376 403.444C629.043 404.657 630.04 405.583 632.367 406.222ZM630.976 411.359C632.845 411.873 634.235 412.727 635.144 413.922C636.051 415.129 636.281 416.543 635.836 418.165C635.391 419.786 634.472 420.878 633.08 421.441C631.684 422.016 630.051 422.047 628.182 421.534C626.288 421.014 624.864 420.143 623.908 418.922C622.952 417.702 622.695 416.287 623.137 414.678C623.579 413.068 624.522 411.983 625.967 411.422C627.413 410.86 629.082 410.839 630.976 411.359ZM629.061 418.261C630.212 418.577 631.095 418.66 631.708 418.509C632.335 418.361 632.733 417.978 632.903 417.359C633.073 416.74 632.926 416.208 632.463 415.761C632.012 415.318 631.211 414.938 630.06 414.622C627.733 413.983 626.403 414.27 626.07 415.483C625.737 416.696 626.734 417.622 629.061 418.261ZM626.241 428.602C628.11 429.116 629.5 429.97 630.409 431.165C631.316 432.372 631.546 433.786 631.101 435.408C630.656 437.029 629.737 438.121 628.345 438.684C626.949 439.259 625.316 439.29 623.447 438.777C621.553 438.257 620.129 437.386 619.173 436.165C618.217 434.944 617.96 433.529 618.402 431.92C618.844 430.311 619.787 429.226 621.233 428.664C622.678 428.103 624.347 428.082 626.241 428.602ZM624.326 435.504C625.477 435.82 626.36 435.903 626.973 435.752C627.6 435.604 627.998 435.221 628.168 434.602C628.338 433.983 628.191 433.45 627.728 433.004C627.277 432.561 626.476 432.181 625.325 431.865C622.998 431.226 621.668 431.513 621.335 432.726C621.002 433.939 621.999 434.865 624.326 435.504ZM622.935 440.641C624.804 441.155 626.194 442.009 627.103 443.204C628.01 444.411 628.24 445.825 627.795 447.447C627.35 449.068 626.431 450.16 625.039 450.723C623.643 451.298 622.01 451.329 620.141 450.816C618.247 450.296 616.823 449.425 615.867 448.204C614.911 446.984 614.654 445.569 615.096 443.959C615.538 442.35 616.481 441.265 617.926 440.704C619.372 440.142 621.041 440.121 622.935 440.641ZM621.02 447.543C622.171 447.859 623.054 447.942 623.667 447.791C624.294 447.643 624.692 447.26 624.862 446.641C625.032 446.022 624.885 445.49 624.422 445.043C623.971 444.6 623.17 444.22 622.019 443.904C619.692 443.265 618.362 443.552 618.029 444.765C617.696 445.978 618.693 446.904 621.02 447.543ZM619.629 452.681C621.498 453.194 622.888 454.048 623.797 455.243C624.704 456.45 624.934 457.864 624.489 459.486C624.044 461.107 623.125 462.2 621.733 462.762C620.337 463.337 618.704 463.368 616.835 462.855C614.941 462.335 613.517 461.464 612.561 460.244C611.605 459.023 611.348 457.608 611.79 455.999C612.232 454.39 613.175 453.304 614.62 452.743C616.066 452.181 617.735 452.161 619.629 452.681ZM617.714 459.582C618.865 459.898 619.748 459.981 620.361 459.83C620.988 459.682 621.386 459.299 621.556 458.68C621.726 458.062 621.579 457.529 621.116 457.082C620.665 456.639 619.864 456.259 618.713 455.943C616.386 455.304 615.056 455.591 614.723 456.804C614.39 458.017 615.387 458.943 617.714 459.582ZM612.08 404.421L619.135 406.359L618.258 409.552L610.962 407.548C610.268 407.358 609.662 407.411 609.141 407.707C608.633 408.007 608.287 408.491 608.103 409.159C607.92 409.828 607.97 410.421 608.254 410.938C608.55 411.458 609.045 411.814 609.738 412.004L617.035 414.008L616.158 417.201L609.102 415.264C607.506 414.826 606.341 413.953 605.608 412.647C604.888 411.345 604.742 409.913 605.17 408.354C605.605 406.77 606.457 405.606 607.726 404.863C609.007 404.123 610.458 403.976 612.08 404.421ZM605.074 420.847L603.59 426.249L600.712 425.459L603.527 415.21L604.362 415.44L611.429 423.151L612.683 418.584L615.561 419.374L612.971 428.806L612.136 428.576L605.074 420.847ZM603.003 427.005L604.046 429.607C603.417 429.861 602.909 430.16 602.521 430.506C602.145 430.856 601.878 431.321 601.718 431.903C601.487 432.745 601.668 433.247 602.262 433.41C602.522 433.482 602.743 433.456 602.923 433.332C603.103 433.209 603.374 432.924 603.737 432.478L604.64 431.368C606.124 429.552 607.639 428.857 609.186 429.282C610.263 429.578 611.027 430.213 611.478 431.189C611.925 432.177 611.976 433.302 611.629 434.565C611.085 436.545 609.878 437.718 608.008 438.083L606.96 435.499C607.503 435.315 607.916 435.096 608.199 434.841C608.494 434.589 608.7 434.253 608.815 433.832C609.016 433.102 608.856 432.665 608.336 432.523C608.114 432.462 607.908 432.485 607.718 432.593C607.538 432.716 607.313 432.954 607.043 433.306L606.062 434.554C605.305 435.517 604.567 436.166 603.849 436.502C603.141 436.853 602.359 436.911 601.505 436.677C600.342 436.357 599.531 435.675 599.072 434.631C598.61 433.599 598.558 432.433 598.914 431.133C599.214 430.044 599.723 429.133 600.444 428.399C601.174 427.681 602.027 427.216 603.003 427.005Z" fill="url(#paint17_linear_234_562)"/>
<path d="M460.294 613.874L456.514 614.943L455.76 612.275L465.111 609.611L465.294 610.26L462.26 616.3C461.584 617.638 461.351 618.677 461.561 619.418C461.683 619.851 461.896 620.157 462.201 620.338C462.505 620.519 462.849 620.555 463.232 620.447C463.615 620.338 463.887 620.121 464.048 619.796C464.197 619.474 464.207 619.084 464.078 618.627C464.005 618.367 463.903 618.103 463.774 617.833L466.979 616.927C467.16 617.236 467.301 617.569 467.402 617.927C467.734 619.007 467.582 620.098 466.946 621.198C466.301 622.314 465.32 623.044 464.004 623.39C462.732 623.749 461.561 623.667 460.492 623.142C459.411 622.62 458.708 621.785 458.384 620.637C458.157 619.834 458.15 619.009 458.364 618.161C458.582 617.326 459.02 616.282 459.68 615.028L460.294 613.874ZM455.65 619.008C456.177 620.874 456.165 622.504 455.612 623.901C455.048 625.301 453.956 626.23 452.338 626.687C450.72 627.145 449.31 626.923 448.109 626.022C446.894 625.125 446.024 623.744 445.497 621.878C444.962 619.989 444.971 618.319 445.521 616.869C446.072 615.42 447.15 614.468 448.756 614.014C450.362 613.56 451.779 613.807 453.007 614.754C454.235 615.7 455.116 617.119 455.65 619.008ZM448.752 620.938C449.077 622.087 449.463 622.885 449.909 623.332C450.359 623.792 450.893 623.934 451.511 623.76C452.128 623.585 452.508 623.184 452.651 622.557C452.798 621.942 452.708 621.06 452.384 619.912C451.727 617.59 450.794 616.6 449.583 616.942C448.373 617.284 448.096 618.616 448.752 620.938ZM443.636 622.404C444.163 624.27 444.15 625.9 443.598 627.297C443.034 628.697 441.942 629.626 440.324 630.083C438.706 630.541 437.296 630.319 436.094 629.418C434.88 628.521 434.01 627.139 433.483 625.274C432.948 623.385 432.957 621.715 433.507 620.265C434.058 618.816 435.136 617.864 436.742 617.41C438.348 616.956 439.764 617.203 440.992 618.15C442.22 619.096 443.102 620.515 443.636 622.404ZM436.738 624.334C437.063 625.483 437.449 626.281 437.895 626.728C438.345 627.188 438.879 627.33 439.497 627.156C440.114 626.981 440.494 626.58 440.637 625.953C440.784 625.338 440.694 624.456 440.37 623.308C439.713 620.985 438.78 619.995 437.569 620.338C436.359 620.68 436.082 622.012 436.738 624.334ZM426.429 627.268C426.956 629.133 426.944 630.764 426.391 632.161C425.827 633.561 424.735 634.49 423.117 634.947C421.499 635.404 420.089 635.183 418.887 634.282C417.673 633.384 416.803 632.003 416.276 630.138C415.741 628.248 415.75 626.579 416.3 625.129C416.851 623.68 417.929 622.728 419.535 622.274C421.141 621.82 422.558 622.067 423.786 623.013C425.014 623.96 425.895 625.378 426.429 627.268ZM419.531 629.198C419.856 630.347 420.242 631.145 420.688 631.592C421.138 632.052 421.672 632.194 422.29 632.02C422.907 631.845 423.287 631.444 423.43 630.817C423.577 630.202 423.487 629.32 423.163 628.171C422.506 625.849 421.573 624.859 420.362 625.201C419.152 625.544 418.875 626.876 419.531 629.198ZM414.415 630.664C414.942 632.529 414.929 634.16 414.377 635.557C413.813 636.957 412.721 637.886 411.103 638.343C409.485 638.8 408.075 638.579 406.873 637.678C405.659 636.78 404.789 635.399 404.262 633.534C403.727 631.644 403.736 629.975 404.286 628.525C404.837 627.076 405.915 626.124 407.521 625.67C409.127 625.216 410.543 625.463 411.771 626.409C412.999 627.356 413.881 628.774 414.415 630.664ZM407.517 632.594C407.842 633.743 408.228 634.541 408.674 634.988C409.124 635.448 409.658 635.59 410.276 635.416C410.893 635.241 411.273 634.84 411.416 634.213C411.563 633.598 411.473 632.716 411.149 631.567C410.492 629.245 409.559 628.255 408.348 628.597C407.138 628.94 406.861 630.272 407.517 632.594ZM402.401 634.06C402.928 635.925 402.915 637.556 402.363 638.953C401.798 640.353 400.707 641.282 399.089 641.739C397.471 642.196 396.061 641.975 394.859 641.074C393.645 640.176 392.775 638.795 392.247 636.93C391.713 635.04 391.722 633.371 392.272 631.921C392.823 630.472 393.901 629.52 395.507 629.066C397.113 628.612 398.529 628.858 399.757 629.805C400.985 630.752 401.866 632.17 402.401 634.06ZM395.503 635.99C395.828 637.139 396.213 637.937 396.66 638.384C397.11 638.844 397.644 638.986 398.262 638.812C398.879 638.637 399.259 638.236 399.402 637.609C399.548 636.994 399.459 636.112 399.135 634.963C398.478 632.641 397.545 631.651 396.334 631.993C395.124 632.335 394.847 633.668 395.503 635.99ZM440.065 602.569L442.055 609.609L438.868 610.51L436.81 603.229C436.615 602.537 436.256 602.045 435.733 601.753C435.213 601.473 434.62 601.427 433.953 601.615C433.286 601.804 432.805 602.153 432.509 602.664C432.217 603.187 432.168 603.794 432.364 604.486L434.422 611.767L431.235 612.668L429.245 605.627C428.795 604.034 428.939 602.586 429.678 601.283C430.42 599.993 431.569 599.128 433.126 598.688C434.707 598.241 436.143 598.368 437.436 599.07C438.731 599.785 439.608 600.951 440.065 602.569ZM422.383 605.066L416.992 606.59L416.18 603.718L426.407 600.827L426.643 601.661L423.698 611.697L428.255 610.409L429.067 613.281L419.655 615.941L419.419 615.107L422.383 605.066ZM416.042 606.478L414.353 608.716C413.811 608.309 413.292 608.029 412.795 607.876C412.302 607.735 411.765 607.747 411.185 607.911C410.345 608.149 410.008 608.564 410.176 609.157C410.249 609.416 410.385 609.591 410.584 609.681C410.783 609.772 411.168 609.857 411.737 609.936L413.154 610.136C415.475 610.467 416.854 611.404 417.29 612.948C417.594 614.023 417.445 615.005 416.843 615.896C416.228 616.79 415.291 617.415 414.031 617.771C412.055 618.329 410.427 617.903 409.148 616.49L410.818 614.257C411.255 614.627 411.657 614.867 412.021 614.978C412.39 615.1 412.784 615.102 413.204 614.984C413.932 614.778 414.223 614.415 414.077 613.896C414.014 613.674 413.887 613.51 413.697 613.403C413.498 613.313 413.179 613.243 412.738 613.194L411.162 613C409.946 612.85 409.009 612.554 408.351 612.114C407.684 611.689 407.23 611.05 406.989 610.198C406.661 609.037 406.825 607.99 407.482 607.057C408.126 606.128 409.097 605.48 410.394 605.113C411.481 604.806 412.525 604.771 413.525 605.009C414.517 605.262 415.356 605.752 416.042 606.478Z" fill="url(#paint18_linear_234_562)"/>
<path d="M182.767 562.175C181.394 563.543 179.963 564.326 178.474 564.523C176.976 564.71 175.634 564.208 174.447 563.017C173.26 561.826 172.768 560.486 172.971 558.998C173.164 557.501 173.948 556.068 175.321 554.7C176.712 553.314 178.175 552.509 179.709 552.285C181.244 552.062 182.6 552.541 183.777 553.723C184.955 554.905 185.429 556.263 185.199 557.796C184.969 559.33 184.159 560.789 182.767 562.175ZM177.726 557.088C176.88 557.93 176.371 558.655 176.197 559.263C176.014 559.88 176.149 560.416 176.602 560.87C177.055 561.325 177.591 561.462 178.208 561.282C178.817 561.11 179.544 560.604 180.389 559.761C182.099 558.058 182.51 556.761 181.622 555.87C180.734 554.979 179.436 555.385 177.726 557.088ZM170.735 548.596L165.551 553.76L163.214 551.414L168.575 546.074C169.084 545.566 169.339 545.013 169.34 544.414C169.333 543.824 169.084 543.284 168.595 542.792C168.106 542.301 167.566 542.051 166.976 542.041C166.377 542.039 165.823 542.293 165.314 542.8L159.953 548.14L157.616 545.794L162.799 540.63C163.972 539.462 165.308 538.883 166.805 538.895C168.294 538.916 169.609 539.5 170.75 540.646C171.91 541.81 172.497 543.127 172.512 544.597C172.519 546.077 171.926 547.41 170.735 548.596ZM159.952 534.362L155.998 530.393L158.112 528.286L165.613 535.816L164.999 536.428L154.797 538.736L158.14 542.092L156.026 544.198L149.123 537.268L149.737 536.657L159.952 534.362ZM155.633 529.508L152.857 529.122C152.949 528.45 152.941 527.86 152.833 527.352C152.716 526.852 152.444 526.389 152.018 525.962C151.402 525.343 150.876 525.251 150.44 525.686C150.249 525.876 150.162 526.081 150.18 526.298C150.198 526.516 150.31 526.893 150.518 527.429L151.033 528.764C151.873 530.953 151.724 532.614 150.588 533.746C149.797 534.534 148.866 534.882 147.795 534.789C146.715 534.687 145.713 534.173 144.789 533.245C143.339 531.79 142.921 530.16 143.532 528.355L146.295 528.728C146.185 529.29 146.171 529.758 146.252 530.13C146.323 530.511 146.513 530.857 146.821 531.166C147.356 531.702 147.814 531.78 148.196 531.4C148.36 531.237 148.442 531.046 148.442 530.829C148.424 530.611 148.33 530.297 148.158 529.889L147.562 528.417C147.101 527.282 146.903 526.319 146.968 525.53C147.015 524.74 147.352 524.033 147.98 523.408C148.835 522.556 149.829 522.191 150.964 522.311C152.089 522.422 153.127 522.955 154.078 523.91C154.875 524.71 155.414 525.605 155.693 526.595C155.954 527.585 155.934 528.556 155.633 529.508Z" fill="url(#paint19_linear_234_562)"/>
<path d="M85.7025 311.151C86.9249 311.499 87.8181 312.253 88.3822 313.414C88.9374 314.559 89.0238 315.805 88.6413 317.151C88.3431 318.2 87.8189 319.059 87.0687 319.726C86.3186 320.394 85.427 320.808 84.394 320.968L83.4647 318.322C84.1255 318.109 84.6286 317.865 84.9737 317.59C85.3101 317.298 85.5449 316.918 85.6783 316.449C85.8186 315.955 85.8136 315.527 85.6632 315.164C85.504 314.785 85.2145 314.536 84.7947 314.416C83.9551 314.178 83.3353 314.762 82.9353 316.17L82.4406 317.911L81.6257 317.679L79.0189 314.596L78.0294 318.078L75.1588 317.262L77.501 309.021L78.3344 309.258L81.2563 312.71C81.7737 312.017 82.428 311.522 83.2193 311.226C84.0105 310.931 84.8383 310.906 85.7025 311.151ZM84.0445 308.886C82.1801 308.356 80.7984 307.49 79.8992 306.287C79.0036 305.072 78.7856 303.655 79.2453 302.038C79.705 300.42 80.6335 299.336 82.0309 298.786C83.4318 298.223 85.0644 298.207 86.9288 298.737C88.8179 299.274 90.2349 300.157 91.1799 301.386C92.1249 302.616 92.3694 304.033 91.9132 305.638C91.457 307.243 90.5038 308.32 89.0535 308.868C87.6033 309.417 85.9336 309.423 84.0445 308.886ZM86.021 302.002C84.8727 301.675 83.991 301.585 83.3759 301.73C82.7484 301.872 82.3469 302.252 82.1715 302.869C81.9961 303.487 82.1379 304.021 82.5969 304.471C83.0436 304.919 83.8411 305.305 84.9894 305.632C87.3106 306.291 88.6431 306.016 88.987 304.806C89.3309 303.596 88.3422 302.661 86.021 302.002ZM87.4574 296.877C85.593 296.347 84.2113 295.481 83.3121 294.278C82.4165 293.062 82.1985 291.646 82.6582 290.028C83.1179 288.411 84.0464 287.327 85.4438 286.777C86.8447 286.214 88.4773 286.198 90.3417 286.728C92.2308 287.264 93.6478 288.148 94.5928 289.377C95.5378 290.606 95.7823 292.023 95.3261 293.629C94.87 295.234 93.9167 296.311 92.4665 296.859C91.0162 297.408 89.3465 297.414 87.4574 296.877ZM89.4339 289.992C88.2856 289.666 87.4039 289.576 86.7888 289.721C86.1613 289.863 85.7599 290.243 85.5844 290.86C85.409 291.477 85.5508 292.011 86.0098 292.462C86.4565 292.909 87.254 293.296 88.4023 293.622C90.7235 294.282 92.056 294.007 92.3999 292.797C92.7438 291.587 91.7551 290.652 89.4339 289.992ZM92.3455 279.677C90.4811 279.147 89.0994 278.28 88.2002 277.078C87.3046 275.862 87.0866 274.446 87.5463 272.828C88.0059 271.211 88.9345 270.127 90.3319 269.577C91.7327 269.014 93.3654 268.998 95.2298 269.528C97.1188 270.064 98.5359 270.948 99.4809 272.177C100.426 273.406 100.67 274.823 100.214 276.429C99.758 278.034 98.8048 279.11 97.3545 279.659C95.9042 280.208 94.2346 280.214 92.3455 279.677ZM94.322 272.792C93.1737 272.466 92.292 272.376 91.6769 272.521C91.0494 272.663 90.6479 273.043 90.4725 273.66C90.297 274.277 90.4389 274.811 90.8979 275.262C91.3446 275.709 92.1421 276.096 93.2903 276.422C95.6116 277.082 96.9441 276.807 97.288 275.597C97.6318 274.387 96.6432 273.452 94.322 272.792ZM95.7584 267.667C93.894 267.138 92.5123 266.271 91.6131 265.068C90.7175 263.853 90.4995 262.437 90.9592 260.819C91.4188 259.202 92.3474 258.118 93.7448 257.568C95.1457 257.005 96.7783 256.988 98.6427 257.518C100.532 258.055 101.949 258.938 102.894 260.168C103.839 261.397 104.083 262.814 103.627 264.419C103.171 266.024 102.218 267.101 100.767 267.65C99.3172 268.198 97.6475 268.204 95.7584 267.667ZM97.7349 260.783C96.5866 260.457 95.7049 260.366 95.0898 260.512C94.4623 260.654 94.0608 261.033 93.8854 261.651C93.71 262.268 93.8518 262.802 94.3108 263.253C94.7575 263.7 95.555 264.087 96.7033 264.413C99.0245 265.073 100.357 264.798 100.701 263.588C101.045 262.378 100.056 261.443 97.7349 260.783ZM99.1713 255.658C97.3069 255.128 95.9252 254.262 95.026 253.059C94.1304 251.844 93.9124 250.427 94.3721 248.81C94.8318 247.192 95.7603 246.109 97.1577 245.558C98.5586 244.996 100.191 244.979 102.056 245.509C103.945 246.046 105.362 246.929 106.307 248.158C107.252 249.388 107.496 250.805 107.04 252.41C106.584 254.015 105.631 255.092 104.18 255.641C102.73 256.189 101.06 256.195 99.1713 255.658ZM101.148 248.774C99.9995 248.448 99.1178 248.357 98.5027 248.503C97.8752 248.644 97.4738 249.024 97.2983 249.641C97.1229 250.259 97.2647 250.793 97.7237 251.244C98.1704 251.691 98.9679 252.078 100.116 252.404C102.437 253.064 103.77 252.788 104.114 251.578C104.458 250.368 103.469 249.434 101.148 248.774ZM105.59 306.452L98.5519 304.451L99.4572 301.266L106.736 303.334C107.427 303.531 108.034 303.483 108.558 303.192C109.069 302.897 109.419 302.416 109.608 301.749C109.798 301.082 109.753 300.489 109.473 299.969C109.182 299.446 108.69 299.086 107.999 298.89L100.72 296.821L101.626 293.636L108.663 295.636C110.256 296.088 111.413 296.971 112.134 298.283C112.843 299.592 112.977 301.025 112.534 302.58C112.085 304.161 111.223 305.317 109.948 306.049C108.66 306.777 107.207 306.911 105.59 306.452ZM112.742 290.089L114.273 284.7L117.144 285.515L114.239 295.739L113.405 295.502L106.407 287.728L105.112 292.284L102.242 291.469L104.915 282.06L105.749 282.297L112.742 290.089ZM114.867 283.949L113.848 281.338C114.478 281.09 114.989 280.795 115.38 280.452C115.759 280.106 116.031 279.643 116.196 279.063C116.434 278.223 116.257 277.719 115.664 277.551C115.405 277.477 115.185 277.501 115.003 277.623C114.822 277.745 114.548 278.027 114.182 278.47L113.269 279.572C111.769 281.374 110.247 282.056 108.704 281.617C107.63 281.312 106.872 280.67 106.43 279.69C105.991 278.698 105.95 277.572 106.308 276.313C106.87 274.337 108.087 273.176 109.961 272.827L110.986 275.42C110.441 275.599 110.026 275.815 109.741 276.067C109.443 276.316 109.235 276.651 109.115 277.071C108.908 277.799 109.064 278.237 109.583 278.384C109.805 278.448 110.011 278.426 110.202 278.32C110.383 278.198 110.61 277.962 110.883 277.613L111.876 276.374C112.641 275.417 113.384 274.774 114.105 274.445C114.817 274.101 115.599 274.049 116.451 274.291C117.611 274.621 118.416 275.31 118.865 276.359C119.318 277.395 119.361 278.561 118.992 279.857C118.683 280.944 118.165 281.851 117.438 282.578C116.702 283.29 115.845 283.747 114.867 283.949Z" fill="url(#paint20_linear_234_562)"/>
<path d="M391.663 74.9207L392.686 75.1948L389.397 87.4692L386.198 86.6121L388.47 78.1316L386.203 78.2616L386.198 75.2304L391.663 74.9207ZM398.697 83.2837C399.199 81.4115 400.044 80.0169 401.233 79.0997C402.435 78.1858 403.848 77.9465 405.472 78.3817C407.096 78.8169 408.194 79.729 408.765 81.1179C409.349 82.5101 409.39 84.1423 408.889 86.0145C408.38 87.9115 407.519 89.3417 406.304 90.3051C405.089 91.2686 403.675 91.5344 402.064 91.1025C400.452 90.6706 399.361 89.7337 398.79 88.2919C398.22 86.8501 398.189 85.1807 398.697 83.2837ZM405.61 85.1561C405.919 84.003 405.997 83.12 405.842 82.5072C405.69 81.8819 405.305 81.4862 404.685 81.3201C404.065 81.154 403.533 81.3039 403.089 81.7697C402.649 82.2231 402.274 83.0263 401.965 84.1793C401.341 86.5103 401.636 87.8385 402.851 88.1641C404.066 88.4896 404.986 87.487 405.61 85.1561ZM410.756 86.515C411.258 84.6428 412.104 83.2482 413.293 82.331C414.494 81.4171 415.907 81.1778 417.532 81.613C419.156 82.0482 420.254 82.9603 420.825 84.3492C421.409 85.7414 421.45 87.3737 420.948 89.2458C420.44 91.1428 419.578 92.573 418.363 93.5364C417.148 94.4999 415.735 94.7657 414.123 94.3338C412.511 93.9019 411.42 92.9651 410.85 91.5232C410.279 90.0814 410.248 88.412 410.756 86.515ZM417.67 88.3874C417.979 87.2343 418.056 86.3514 417.901 85.7385C417.75 85.1132 417.364 84.7175 416.744 84.5514C416.124 84.3853 415.593 84.5352 415.149 85.001C414.708 85.4544 414.334 86.2576 414.025 87.4107C413.4 89.7416 413.695 91.0698 414.91 91.3954C416.125 91.7209 417.045 90.7183 417.67 88.3874ZM422.816 89.7463C423.318 87.8742 424.163 86.4795 425.352 85.5623C426.554 84.6484 427.967 84.4091 429.591 84.8443C431.215 85.2795 432.313 86.1916 432.884 87.5805C433.468 88.9728 433.509 90.605 433.007 92.4771C432.499 94.3741 431.638 95.8043 430.423 96.7677C429.208 97.7312 427.794 97.997 426.182 97.5651C424.571 97.1332 423.48 96.1964 422.909 94.7545C422.339 93.3127 422.308 91.6433 422.816 89.7463ZM429.729 91.6187C430.038 90.4656 430.115 89.5827 429.961 88.9698C429.809 88.3445 429.424 87.9489 428.804 87.7827C428.184 87.6166 427.652 87.7665 427.208 88.2323C426.768 88.6857 426.393 89.4889 426.084 90.642C425.46 92.9729 425.755 94.3011 426.97 94.6267C428.185 94.9523 429.105 93.9496 429.729 91.6187ZM440.088 94.3743C440.589 92.5021 441.435 91.1075 442.624 90.1903C443.826 89.2764 445.239 89.0371 446.863 89.4723C448.487 89.9075 449.585 90.8196 450.156 92.2085C450.74 93.6007 450.781 95.2329 450.279 97.1051C449.771 99.0021 448.909 100.432 447.694 101.396C446.479 102.359 445.066 102.625 443.454 102.193C441.843 101.761 440.751 100.824 440.181 99.3825C439.611 97.9407 439.579 96.2713 440.088 94.3743ZM447.001 96.2467C447.31 95.0936 447.387 94.2106 447.232 93.5978C447.081 92.9725 446.695 92.5768 446.076 92.4107C445.456 92.2446 444.924 92.3945 444.48 92.8603C444.04 93.3137 443.665 94.1169 443.356 95.2699C442.731 97.6008 443.027 98.9291 444.242 99.2547C445.457 99.5802 446.377 98.5776 447.001 96.2467ZM452.147 97.6056C452.649 95.7334 453.494 94.3388 454.683 93.4216C455.885 92.5077 457.298 92.2684 458.922 92.7036C460.546 93.1388 461.644 94.0509 462.216 95.4398C462.799 96.832 462.84 98.4642 462.339 100.336C461.83 102.233 460.969 103.664 459.754 104.627C458.539 105.59 457.126 105.856 455.514 105.424C453.902 104.993 452.811 104.056 452.24 102.614C451.67 101.172 451.639 99.5026 452.147 97.6056ZM459.06 99.478C459.369 98.3249 459.447 97.4419 459.292 96.8291C459.14 96.2038 458.755 95.8081 458.135 95.642C457.515 95.4759 456.983 95.6258 456.539 96.0916C456.099 96.545 455.724 97.3482 455.415 98.5012C454.791 100.832 455.086 102.16 456.301 102.486C457.516 102.812 458.436 101.809 459.06 99.478ZM464.207 100.837C464.708 98.9648 465.554 97.5701 466.743 96.6529C467.945 95.739 469.357 95.4997 470.982 95.9349C472.606 96.3701 473.704 97.2822 474.275 98.6711C474.859 100.063 474.9 101.696 474.398 103.568C473.89 105.465 473.028 106.895 471.813 107.858C470.598 108.822 469.185 109.088 467.573 108.656C465.961 108.224 464.87 107.287 464.3 105.845C463.729 104.403 463.698 102.734 464.207 100.837ZM471.12 102.709C471.429 101.556 471.506 100.673 471.351 100.06C471.2 99.4351 470.814 99.0394 470.194 98.8733C469.574 98.7072 469.043 98.8571 468.599 99.3229C468.158 99.7763 467.784 100.58 467.475 101.733C466.85 104.063 467.145 105.392 468.361 105.717C469.576 106.043 470.495 105.04 471.12 102.709ZM408.803 106.758L410.697 99.691L413.895 100.548L411.937 107.857C411.751 108.551 411.808 109.158 412.107 109.677C412.41 110.183 412.896 110.526 413.566 110.705C414.235 110.885 414.828 110.831 415.343 110.544C415.862 110.244 416.214 109.747 416.4 109.053L418.359 101.744L421.558 102.601L419.664 109.668C419.235 111.268 418.37 112.438 417.069 113.179C415.771 113.907 414.34 114.062 412.778 113.644C411.191 113.218 410.022 112.374 409.271 111.109C408.524 109.833 408.368 108.382 408.803 106.758ZM425.271 113.662L430.683 115.113L429.911 117.995L419.645 115.244L419.869 114.408L427.536 107.293L422.961 106.067L423.734 103.184L433.181 105.716L432.957 106.553L425.271 113.662ZM431.442 115.695L434.038 114.636C434.296 115.263 434.598 115.77 434.947 116.155C435.299 116.529 435.766 116.793 436.349 116.949C437.192 117.175 437.693 116.991 437.852 116.396C437.922 116.135 437.895 115.915 437.77 115.736C437.646 115.556 437.359 115.287 436.91 114.927L435.795 114.031C433.971 112.558 433.266 111.047 433.681 109.497C433.97 108.419 434.601 107.651 435.574 107.194C436.559 106.74 437.684 106.683 438.949 107.022C440.933 107.554 442.113 108.753 442.489 110.622L439.912 111.685C439.725 111.143 439.503 110.732 439.246 110.45C438.993 110.157 438.655 109.953 438.234 109.84C437.502 109.644 437.067 109.807 436.927 110.327C436.867 110.55 436.892 110.756 437.001 110.945C437.125 111.125 437.364 111.348 437.718 111.616L438.972 112.589C439.94 113.341 440.594 114.074 440.934 114.79C441.289 115.496 441.353 116.277 441.123 117.133C440.811 118.298 440.134 119.113 439.093 119.578C438.063 120.047 436.898 120.107 435.596 119.758C434.505 119.465 433.59 118.961 432.852 118.245C432.129 117.52 431.66 116.67 431.442 115.695Z" fill="url(#paint21_linear_234_562)"/>
<path d="M614.129 249.778L611.46 250.527L611.059 249.1L609.242 249.61L608.347 246.422L610.164 245.912L608.467 239.869L609.301 239.635L619.91 240.595L620.831 243.876L612.245 243.068L612.833 245.162L615.836 244.319L616.731 247.507L613.728 248.351L614.129 249.778ZM617.617 255.577C619.483 255.053 621.114 255.069 622.51 255.624C623.909 256.191 624.836 257.284 625.29 258.902C625.745 260.521 625.521 261.931 624.618 263.131C623.718 264.343 622.335 265.212 620.469 265.736C618.579 266.266 616.909 266.255 615.46 265.702C614.012 265.149 613.062 264.069 612.611 262.463C612.16 260.856 612.409 259.44 613.358 258.213C614.307 256.987 615.726 256.108 617.617 255.577ZM619.535 262.478C620.684 262.156 621.483 261.771 621.931 261.326C622.391 260.876 622.535 260.343 622.361 259.725C622.188 259.107 621.788 258.726 621.161 258.582C620.546 258.435 619.664 258.522 618.515 258.845C616.191 259.497 615.2 260.429 615.54 261.64C615.88 262.851 617.212 263.131 619.535 262.478ZM620.992 267.597C622.858 267.073 624.489 267.089 625.885 267.643C627.284 268.211 628.211 269.304 628.665 270.922C629.12 272.541 628.896 273.951 627.993 275.151C627.093 276.363 625.711 277.232 623.844 277.756C621.954 278.286 620.284 278.275 618.836 277.722C617.387 277.169 616.437 276.089 615.986 274.483C615.535 272.876 615.784 271.46 616.733 270.233C617.682 269.007 619.101 268.128 620.992 267.597ZM622.91 274.498C624.059 274.176 624.858 273.791 625.306 273.346C625.766 272.896 625.91 272.363 625.736 271.745C625.563 271.127 625.163 270.746 624.536 270.602C623.921 270.455 623.039 270.542 621.89 270.865C619.566 271.517 618.575 272.449 618.915 273.66C619.255 274.871 620.587 275.151 622.91 274.498ZM624.367 279.617C626.233 279.093 627.864 279.109 629.26 279.663C630.659 280.231 631.586 281.324 632.04 282.942C632.495 284.561 632.271 285.971 631.368 287.171C630.468 288.383 629.086 289.252 627.22 289.776C625.329 290.306 623.659 290.295 622.211 289.742C620.762 289.189 619.812 288.109 619.361 286.503C618.91 284.896 619.159 283.48 620.108 282.253C621.057 281.027 622.476 280.148 624.367 279.617ZM626.285 286.518C627.434 286.196 628.233 285.811 628.681 285.366C629.141 284.916 629.285 284.383 629.111 283.765C628.938 283.147 628.538 282.766 627.911 282.622C627.296 282.475 626.414 282.562 625.265 282.885C622.941 283.537 621.95 284.469 622.29 285.68C622.63 286.891 623.962 287.171 626.285 286.518ZM629.201 296.833C631.067 296.309 632.698 296.324 634.094 296.879C635.493 297.446 636.42 298.539 636.874 300.158C637.329 301.777 637.105 303.186 636.202 304.386C635.302 305.599 633.919 306.467 632.053 306.991C630.163 307.522 628.493 307.511 627.044 306.957C625.596 306.404 624.646 305.324 624.195 303.718C623.744 302.111 623.993 300.695 624.942 299.469C625.891 298.242 627.31 297.364 629.201 296.833ZM631.119 303.734C632.268 303.411 633.067 303.027 633.515 302.581C633.975 302.132 634.119 301.598 633.945 300.98C633.772 300.362 633.372 299.981 632.745 299.837C632.13 299.69 631.248 299.778 630.099 300.1C627.775 300.753 626.784 301.684 627.124 302.896C627.464 304.107 628.796 304.386 631.119 303.734ZM632.576 308.853C634.442 308.329 636.073 308.344 637.469 308.899C638.868 309.466 639.795 310.559 640.249 312.178C640.704 313.797 640.48 315.206 639.577 316.406C638.677 317.619 637.295 318.487 635.428 319.011C633.538 319.542 631.868 319.531 630.42 318.977C628.971 318.424 628.021 317.344 627.57 315.738C627.119 314.131 627.368 312.715 628.317 311.489C629.266 310.262 630.685 309.384 632.576 308.853ZM634.494 315.754C635.643 315.431 636.442 315.047 636.89 314.601C637.35 314.152 637.494 313.618 637.32 313C637.147 312.382 636.747 312.001 636.12 311.857C635.505 311.71 634.623 311.798 633.474 312.12C631.15 312.773 630.159 313.704 630.499 314.915C630.839 316.127 632.171 316.406 634.494 315.754ZM635.951 320.873C637.817 320.349 639.448 320.364 640.844 320.919C642.243 321.486 643.17 322.579 643.624 324.198C644.079 325.817 643.855 327.226 642.952 328.426C642.052 329.639 640.67 330.507 638.804 331.031C636.913 331.562 635.243 331.551 633.795 330.997C632.346 330.444 631.396 329.364 630.945 327.758C630.494 326.151 630.743 324.735 631.692 323.509C632.641 322.282 634.06 321.404 635.951 320.873ZM637.869 327.774C639.018 327.451 639.817 327.067 640.265 326.621C640.725 326.172 640.869 325.638 640.695 325.02C640.522 324.402 640.122 324.021 639.495 323.877C638.88 323.73 637.998 323.818 636.849 324.14C634.525 324.793 633.534 325.724 633.874 326.935C634.214 328.147 635.546 328.426 637.869 327.774ZM602.116 274.573L609.16 272.595L610.055 275.783L602.77 277.829C602.078 278.023 601.586 278.382 601.292 278.904C601.011 279.423 600.965 280.016 601.152 280.683C601.339 281.35 601.688 281.833 602.198 282.129C602.72 282.423 603.328 282.472 604.02 282.278L611.305 280.232L612.2 283.421L605.156 285.398C603.562 285.846 602.114 285.699 600.813 284.958C599.524 284.213 598.66 283.063 598.223 281.506C597.779 279.924 597.909 278.487 598.613 277.196C599.33 275.902 600.497 275.028 602.116 274.573ZM604.582 292.259L606.097 297.653L603.224 298.46L600.351 288.228L601.185 287.993L611.216 290.956L609.936 286.396L612.809 285.59L615.453 295.006L614.619 295.24L604.582 292.259ZM605.984 298.603L608.219 300.295C607.811 300.837 607.53 301.356 607.376 301.852C607.234 302.345 607.245 302.882 607.408 303.463C607.644 304.303 608.059 304.64 608.652 304.473C608.912 304.401 609.087 304.265 609.178 304.066C609.268 303.867 609.354 303.483 609.434 302.914L609.636 301.497C609.971 299.177 610.911 297.8 612.456 297.366C613.531 297.064 614.513 297.215 615.403 297.818C616.295 298.434 616.919 299.372 617.273 300.633C617.828 302.61 617.398 304.237 615.984 305.515L613.754 303.841C614.124 303.404 614.365 303.003 614.476 302.638C614.599 302.27 614.602 301.876 614.484 301.456C614.279 300.727 613.918 300.435 613.399 300.581C613.176 300.643 613.012 300.77 612.905 300.96C612.814 301.158 612.744 301.478 612.694 301.919L612.497 303.494C612.345 304.71 612.048 305.646 611.606 306.304C611.18 306.97 610.54 307.423 609.687 307.662C608.526 307.989 607.479 307.823 606.548 307.164C605.62 306.518 604.974 305.546 604.609 304.249C604.304 303.161 604.271 302.117 604.51 301.117C604.765 300.125 605.256 299.288 605.984 298.603Z" fill="url(#paint22_linear_234_562)"/>
<path d="M568.382 537.7C567.583 536.884 567.279 535.914 567.473 534.791C567.666 533.667 568.28 532.598 569.316 531.583C570.362 530.559 571.448 529.962 572.575 529.792C573.702 529.622 574.666 529.945 575.465 530.761C576.444 531.761 576.64 533.006 576.053 534.498C577.353 534.266 578.417 534.572 579.243 535.416C580.007 536.195 580.311 537.092 580.155 538.107C579.99 539.131 579.449 540.092 578.532 540.991C577.615 541.889 576.648 542.405 575.63 542.54C574.612 542.675 573.721 542.353 572.958 541.573C572.131 540.73 571.847 539.66 572.106 538.365C570.602 538.921 569.361 538.7 568.382 537.7ZM576.976 537.421C576.787 537.228 576.543 537.135 576.244 537.141C575.944 537.147 575.535 537.234 575.016 537.401C574.829 537.907 574.739 538.31 574.745 538.61C574.741 538.918 574.834 539.169 575.023 539.361C575.238 539.582 575.501 539.666 575.81 539.615C576.128 539.573 576.429 539.412 576.713 539.134C576.998 538.855 577.169 538.553 577.227 538.227C577.275 537.91 577.192 537.641 576.976 537.421ZM570.815 535.506C571.273 535.974 572.044 535.954 573.13 535.448C573.64 534.373 573.671 533.607 573.221 533.148C572.961 532.882 572.653 532.77 572.299 532.812C571.935 532.863 571.557 533.081 571.162 533.467C570.777 533.845 570.56 534.21 570.511 534.563C570.453 534.926 570.554 535.24 570.815 535.506ZM565.368 544.804C566.725 546.188 567.495 547.626 567.679 549.116C567.854 550.616 567.341 551.954 566.14 553.13C564.939 554.307 563.595 554.788 562.109 554.573C560.613 554.367 559.187 553.572 557.831 552.187C556.457 550.784 555.664 549.315 555.453 547.779C555.242 546.242 555.732 544.891 556.924 543.723C558.116 542.555 559.478 542.093 561.009 542.335C562.541 542.578 563.994 543.401 565.368 544.804ZM560.238 549.802C561.074 550.655 561.794 551.17 562.401 551.349C563.016 551.537 563.553 551.406 564.011 550.957C564.47 550.508 564.612 549.974 564.436 549.355C564.27 548.745 563.769 548.014 562.934 547.161C561.245 545.437 559.952 545.016 559.053 545.896C558.155 546.776 558.55 548.078 560.238 549.802ZM556.45 553.54C557.806 554.925 558.576 556.362 558.761 557.853C558.936 559.352 558.423 560.69 557.222 561.867C556.021 563.044 554.677 563.525 553.191 563.31C551.695 563.104 550.269 562.309 548.913 560.924C547.538 559.521 546.746 558.052 546.535 556.515C546.323 554.979 546.814 553.627 548.006 552.46C549.198 551.292 550.56 550.829 552.091 551.072C553.623 551.315 555.075 552.138 556.45 553.54ZM551.32 558.539C552.155 559.392 552.876 559.907 553.482 560.086C554.098 560.274 554.635 560.143 555.093 559.694C555.551 559.245 555.693 558.711 555.518 558.092C555.352 557.482 554.851 556.751 554.016 555.898C552.327 554.174 551.033 553.752 550.135 554.633C549.236 555.513 549.631 556.815 551.32 558.539ZM547.531 562.277C548.888 563.662 549.658 565.099 549.842 566.59C550.018 568.089 549.505 569.427 548.303 570.604C547.102 571.781 545.758 572.262 544.272 572.047C542.777 571.841 541.351 571.045 539.994 569.661C538.62 568.258 537.827 566.788 537.616 565.252C537.405 563.716 537.895 562.364 539.087 561.196C540.279 560.029 541.641 559.566 543.173 559.809C544.704 560.052 546.157 560.874 547.531 562.277ZM542.401 567.276C543.237 568.128 543.958 568.644 544.564 568.823C545.179 569.011 545.716 568.88 546.175 568.431C546.633 567.982 546.775 567.448 546.599 566.829C546.433 566.219 545.933 565.488 545.097 564.635C543.408 562.911 542.115 562.489 541.216 563.37C540.318 564.25 540.713 565.552 542.401 567.276ZM556.559 525.353L561.679 530.58L559.313 532.897L554.018 527.492C553.515 526.979 552.964 526.719 552.365 526.713C551.775 526.716 551.232 526.96 550.737 527.445C550.242 527.93 549.987 528.467 549.972 529.057C549.965 529.656 550.214 530.212 550.717 530.726L556.012 536.131L553.646 538.448L548.526 533.222C547.368 532.039 546.801 530.699 546.825 529.202C546.859 527.713 547.453 526.403 548.608 525.272C549.782 524.122 551.104 523.545 552.574 523.542C554.054 523.549 555.382 524.152 556.559 525.353ZM542.235 536.017L538.232 539.937L536.144 537.806L543.736 530.368L544.342 530.987L546.565 541.208L549.949 537.893L552.037 540.025L545.05 546.87L544.444 546.251L542.235 536.017ZM537.345 540.295L536.935 543.068C536.264 542.97 535.674 542.973 535.165 543.077C534.665 543.19 534.199 543.457 533.768 543.88C533.144 544.49 533.048 545.016 533.479 545.456C533.668 545.649 533.871 545.737 534.089 545.721C534.307 545.705 534.685 545.595 535.223 545.392L536.562 544.889C538.758 544.067 540.418 544.229 541.54 545.376C542.322 546.173 542.662 547.107 542.56 548.177C542.449 549.256 541.926 550.254 540.991 551.17C539.524 552.607 537.89 553.012 536.09 552.386L536.486 549.626C537.048 549.741 537.515 549.759 537.888 549.681C538.27 549.612 538.617 549.425 538.929 549.12C539.47 548.59 539.552 548.133 539.174 547.747C539.013 547.582 538.823 547.499 538.605 547.497C538.387 547.512 538.073 547.604 537.663 547.773L536.186 548.357C535.047 548.808 534.083 548.998 533.294 548.926C532.505 548.872 531.8 548.529 531.181 547.897C530.336 547.035 529.979 546.037 530.109 544.904C530.229 543.78 530.771 542.746 531.733 541.803C532.54 541.012 533.44 540.482 534.432 540.21C535.424 539.957 536.395 539.985 537.345 540.295Z" fill="url(#paint23_linear_234_562)"/>
<path d="M316.727 639.836L315.708 639.549L319.161 627.319L322.348 628.219L319.962 636.669L322.231 636.569L322.195 639.6L316.727 639.836ZM306.696 628.241C307.049 626.993 307.811 626.088 308.984 625.525C310.153 624.975 311.429 624.896 312.813 625.286C313.887 625.59 314.771 626.12 315.465 626.876C316.146 627.628 316.567 628.521 316.729 629.553L314.085 630.487C313.871 629.827 313.62 629.322 313.332 628.974C313.027 628.635 312.622 628.394 312.115 628.251C311.584 628.101 311.125 628.098 310.738 628.242C310.347 628.398 310.09 628.692 309.968 629.125C309.734 629.952 310.321 630.565 311.73 630.963L314.639 631.784L312.687 638.695L305.109 636.555L305.92 633.683L310.478 634.97L310.881 633.544C310.424 633.508 310.023 633.441 309.677 633.344C308.607 633.068 307.759 632.435 307.132 631.445C306.492 630.45 306.347 629.382 306.696 628.241ZM304.432 629.862C303.905 631.727 303.041 633.11 301.839 634.011C300.626 634.909 299.21 635.129 297.591 634.672C295.973 634.215 294.888 633.289 294.335 631.892C293.77 630.492 293.751 628.86 294.278 626.994C294.812 625.104 295.692 623.686 296.92 622.739C298.148 621.792 299.565 621.545 301.171 621.998C302.776 622.452 303.855 623.403 304.406 624.853C304.957 626.302 304.965 627.972 304.432 629.862ZM297.544 627.897C297.22 629.045 297.131 629.927 297.277 630.542C297.42 631.169 297.8 631.57 298.418 631.745C299.036 631.919 299.57 631.776 300.019 631.317C300.466 630.869 300.851 630.071 301.176 628.922C301.832 626.6 301.554 625.268 300.344 624.926C299.133 624.584 298.2 625.574 297.544 627.897ZM287.224 625.002C286.697 626.867 285.833 628.251 284.631 629.152C283.417 630.049 282.001 630.27 280.383 629.813C278.765 629.356 277.68 628.429 277.127 627.032C276.562 625.632 276.543 624 277.07 622.135C277.604 620.245 278.484 618.826 279.712 617.879C280.94 616.932 282.357 616.685 283.962 617.139C285.568 617.592 286.647 618.544 287.198 619.993C287.749 621.442 287.757 623.112 287.224 625.002ZM280.336 623.037C280.012 624.186 279.923 625.068 280.069 625.682C280.212 626.31 280.592 626.711 281.21 626.885C281.828 627.059 282.361 626.917 282.811 626.457C283.258 626.009 283.643 625.211 283.968 624.063C284.624 621.74 284.346 620.408 283.136 620.066C281.925 619.724 280.992 620.715 280.336 623.037ZM275.209 621.609C274.682 623.474 273.818 624.857 272.616 625.758C271.403 626.656 269.987 626.876 268.368 626.419C266.75 625.962 265.665 625.036 265.112 623.639C264.547 622.239 264.528 620.607 265.055 618.741C265.589 616.851 266.469 615.433 267.697 614.486C268.925 613.539 270.342 613.292 271.948 613.746C273.553 614.199 274.632 615.151 275.183 616.6C275.734 618.049 275.742 619.719 275.209 621.609ZM268.321 619.644C267.997 620.793 267.908 621.674 268.054 622.289C268.197 622.917 268.578 623.317 269.195 623.492C269.813 623.666 270.347 623.524 270.797 623.064C271.243 622.616 271.628 621.818 271.953 620.669C272.609 618.347 272.331 617.015 271.121 616.673C269.91 616.331 268.977 617.322 268.321 619.644ZM263.194 618.216C262.667 620.081 261.803 621.464 260.602 622.365C259.388 623.263 257.972 623.483 256.353 623.026C254.735 622.569 253.65 621.643 253.097 620.246C252.532 618.846 252.513 617.213 253.04 615.348C253.574 613.458 254.455 612.04 255.682 611.093C256.91 610.146 258.327 609.899 259.933 610.352C261.539 610.806 262.617 611.757 263.168 613.207C263.719 614.656 263.728 616.326 263.194 618.216ZM256.306 616.251C255.982 617.399 255.893 618.281 256.039 618.896C256.182 619.523 256.563 619.924 257.18 620.099C257.798 620.273 258.332 620.13 258.782 619.671C259.228 619.223 259.614 618.425 259.938 617.276C260.594 614.954 260.316 613.622 259.106 613.28C257.895 612.938 256.962 613.928 256.306 616.251ZM309.344 610.406L307.356 617.447L304.169 616.547L306.225 609.265C306.421 608.573 306.372 607.966 306.08 607.443C305.784 606.933 305.302 606.583 304.635 606.395C303.968 606.206 303.375 606.252 302.856 606.533C302.333 606.825 301.974 607.317 301.778 608.009L299.722 615.291L296.535 614.391L298.523 607.35C298.973 605.756 299.854 604.598 301.165 603.874C302.473 603.163 303.905 603.028 305.462 603.467C307.043 603.914 308.2 604.774 308.934 606.048C309.665 607.335 309.801 608.787 309.344 610.406ZM292.97 603.281L287.578 601.758L288.389 598.886L298.617 601.774L298.382 602.608L290.62 609.619L295.178 610.906L294.367 613.778L284.954 611.12L285.19 610.286L292.97 603.281ZM286.827 601.166L284.217 602.189C283.968 601.559 283.672 601.048 283.329 600.658C282.982 600.28 282.519 600.009 281.938 599.845C281.098 599.608 280.594 599.786 280.427 600.378C280.354 600.638 280.378 600.858 280.5 601.039C280.623 601.221 280.906 601.494 281.349 601.859L282.452 602.771C284.257 604.268 284.941 605.788 284.505 607.332C284.202 608.407 283.56 609.166 282.582 609.61C281.59 610.05 280.465 610.092 279.205 609.737C277.228 609.178 276.064 607.963 275.713 606.09L278.304 605.061C278.484 605.605 278.7 606.02 278.953 606.304C279.203 606.602 279.538 606.81 279.958 606.928C280.687 607.134 281.124 606.978 281.271 606.459C281.333 606.236 281.312 606.03 281.205 605.84C281.083 605.659 280.847 605.432 280.497 605.16L279.256 604.169C278.298 603.405 277.654 602.663 277.324 601.943C276.978 601.232 276.926 600.45 277.166 599.598C277.494 598.437 278.182 597.63 279.23 597.179C280.265 596.725 281.431 596.681 282.728 597.047C283.815 597.354 284.723 597.87 285.452 598.596C286.165 599.331 286.623 600.188 286.827 601.166Z" fill="url(#paint24_linear_234_562)"/>
<path d="M92.1419 467.622L90.067 458.656L90.9111 458.461L103.667 461.062L104.479 464.57L93.9642 462.26L95.0494 466.95L92.1419 467.622ZM95.982 456.462C94.0937 456.899 92.4653 456.808 91.0969 456.189C89.7255 455.558 88.8503 454.423 88.4712 452.785C88.0921 451.147 88.3813 449.749 89.3388 448.592C90.2935 447.423 91.7149 446.619 93.6033 446.183C95.5166 445.74 97.1839 445.828 98.6053 446.448C100.027 447.068 100.925 448.19 101.302 449.816C101.678 451.442 101.364 452.845 100.359 454.026C99.3543 455.207 97.8953 456.019 95.982 456.462ZM94.386 449.48C93.223 449.749 92.4074 450.096 91.9391 450.52C91.4583 450.948 91.2903 451.474 91.435 452.099C91.5797 452.724 91.9618 453.123 92.5815 453.296C93.1887 453.472 94.0738 453.425 95.2368 453.156C97.5878 452.612 98.6215 451.727 98.3379 450.502C98.0543 449.276 96.737 448.936 94.386 449.48ZM93.1673 444.298C91.279 444.735 89.6506 444.645 88.2821 444.026C86.9108 443.395 86.0355 442.26 85.6564 440.622C85.2773 438.983 85.5666 437.586 86.5241 436.429C87.4787 435.259 88.9002 434.456 90.7885 434.019C92.7018 433.576 94.3692 433.665 95.7905 434.284C97.2119 434.904 98.1107 436.027 98.4869 437.653C98.8631 439.278 98.5489 440.682 97.5442 441.863C96.5396 443.044 95.0806 443.856 93.1673 444.298ZM91.5712 437.316C90.4082 437.585 89.5926 437.932 89.1243 438.357C88.6436 438.784 88.4755 439.311 88.6202 439.936C88.7649 440.561 89.1471 440.96 89.7668 441.133C90.374 441.309 91.259 441.262 92.422 440.993C94.773 440.449 95.8067 439.564 95.5231 438.338C95.2395 437.113 93.9222 436.772 91.5712 437.316ZM89.1359 426.878C87.2476 427.315 85.6192 427.224 84.2507 426.605C82.8794 425.974 82.0042 424.839 81.6251 423.201C81.246 421.563 81.5352 420.165 82.4927 419.008C83.4473 417.839 84.8688 417.035 86.7571 416.598C88.6704 416.156 90.3378 416.244 91.7592 416.864C93.1805 417.483 94.0793 418.606 94.4555 420.232C94.8317 421.857 94.5175 423.261 93.5129 424.442C92.5082 425.623 91.0492 426.435 89.1359 426.878ZM87.5399 419.895C86.3769 420.165 85.5612 420.511 85.093 420.936C84.6122 421.363 84.4441 421.89 84.5888 422.515C84.7335 423.14 85.1157 423.539 85.7354 423.712C86.3426 423.888 87.2277 423.841 88.3907 423.572C90.7417 423.028 91.7754 422.143 91.4918 420.918C91.2082 419.692 89.8909 419.351 87.5399 419.895ZM86.3211 414.714C84.4328 415.151 82.8045 415.06 81.436 414.442C80.0646 413.81 79.1894 412.676 78.8103 411.038C78.4312 409.399 78.7204 408.002 79.678 406.845C80.6326 405.675 82.0541 404.872 83.9424 404.435C85.8557 403.992 87.523 404.081 88.9444 404.7C90.3658 405.32 91.2646 406.443 91.6408 408.068C92.017 409.694 91.7028 411.097 90.6981 412.279C89.6934 413.46 88.2345 414.272 86.3211 414.714ZM84.7251 407.732C83.5621 408.001 82.7465 408.348 82.2782 408.773C81.7974 409.2 81.6294 409.726 81.7741 410.352C81.9188 410.977 82.301 411.376 82.9206 411.549C83.5278 411.724 84.4129 411.678 85.5759 411.409C87.9269 410.865 88.9606 409.98 88.677 408.754C88.3934 407.529 87.0761 407.188 84.7251 407.732ZM83.5064 402.551C81.6181 402.988 79.9897 402.897 78.6212 402.278C77.2499 401.647 76.3747 400.512 75.9956 398.874C75.6165 397.236 75.9057 395.838 76.8632 394.681C77.8178 393.512 79.2393 392.709 81.1276 392.272C83.0409 391.829 84.7083 391.917 86.1296 392.537C87.551 393.157 88.4498 394.279 88.826 395.905C89.2022 397.531 88.888 398.934 87.8833 400.115C86.8787 401.296 85.4197 402.108 83.5064 402.551ZM81.9104 395.569C80.7474 395.838 79.9317 396.185 79.4634 396.609C78.9827 397.037 78.8146 397.563 78.9593 398.188C79.104 398.814 79.4862 399.213 80.1059 399.385C80.7131 399.561 81.5982 399.514 82.7612 399.245C85.1122 398.701 86.1459 397.816 85.8623 396.591C85.5787 395.365 84.2614 395.025 81.9104 395.569ZM112.959 440.852L105.831 442.501L105.084 439.275L112.456 437.569C113.156 437.407 113.665 437.072 113.982 436.563C114.287 436.058 114.361 435.468 114.205 434.793C114.048 434.117 113.722 433.62 113.227 433.3C112.719 432.982 112.114 432.905 111.414 433.067L104.042 434.773L103.296 431.546L110.424 429.897C112.037 429.524 113.476 429.737 114.742 430.538C115.995 431.341 116.804 432.531 117.168 434.107C117.539 435.707 117.343 437.136 116.579 438.393C115.804 439.653 114.597 440.473 112.959 440.852ZM111.314 423.07L110.051 417.612L112.958 416.939L115.355 427.293L114.51 427.489L104.627 424.064L105.695 428.679L102.788 429.352L100.583 419.823L101.427 419.627L111.314 423.07ZM110.208 416.668L108.054 414.874C108.486 414.352 108.791 413.847 108.968 413.358C109.132 412.872 109.146 412.335 109.01 411.748C108.813 410.897 108.415 410.542 107.815 410.68C107.552 410.741 107.371 410.869 107.271 411.063C107.171 411.258 107.068 411.637 106.961 412.202L106.694 413.608C106.252 415.91 105.249 417.242 103.686 417.604C102.598 417.856 101.624 417.66 100.763 417.016C99.8996 416.359 99.3204 415.393 99.0252 414.118C98.5622 412.117 99.0668 410.511 100.539 409.301L102.689 411.076C102.299 411.496 102.039 411.885 101.912 412.244C101.771 412.606 101.751 412.999 101.849 413.425C102.02 414.162 102.368 414.471 102.893 414.349C103.118 414.297 103.288 414.178 103.404 413.994C103.503 413.799 103.588 413.483 103.658 413.045L103.929 411.481C104.137 410.273 104.477 409.351 104.949 408.715C105.405 408.069 106.065 407.647 106.928 407.447C108.103 407.175 109.141 407.389 110.041 408.09C110.938 408.778 111.539 409.779 111.843 411.092C112.097 412.193 112.082 413.237 111.797 414.225C111.496 415.204 110.967 416.018 110.208 416.668Z" fill="url(#paint25_linear_234_562)"/>
<path d="M141.226 189.441L141.959 188.677L151.129 197.474L148.836 199.864L142.501 193.786L141.522 195.835L138.864 194.379L141.226 189.441ZM148.208 191.202C146.809 189.86 145.995 188.447 145.764 186.963C145.542 185.47 146.014 184.117 147.178 182.903C148.342 181.69 149.67 181.168 151.162 181.336C152.664 181.496 154.114 182.247 155.512 183.588C156.929 184.948 157.767 186.392 158.026 187.921C158.285 189.45 157.836 190.816 156.681 192.021C155.526 193.225 154.179 193.729 152.641 193.534C151.103 193.339 149.625 192.562 148.208 191.202ZM153.18 186.047C152.319 185.221 151.582 184.728 150.971 184.568C150.35 184.399 149.817 184.546 149.373 185.009C148.929 185.473 148.804 186.011 148.998 186.624C149.183 187.228 149.706 187.944 150.568 188.77C152.309 190.441 153.615 190.822 154.486 189.915C155.357 189.007 154.921 187.718 153.18 186.047ZM156.851 182.193C155.452 180.851 154.638 179.438 154.407 177.954C154.186 176.461 154.657 175.107 155.821 173.894C156.985 172.681 158.313 172.158 159.805 172.327C161.307 172.487 162.757 173.237 164.155 174.579C165.572 175.939 166.41 177.383 166.669 178.912C166.928 180.441 166.479 181.807 165.324 183.011C164.169 184.215 162.822 184.72 161.284 184.525C159.746 184.33 158.268 183.552 156.851 182.193ZM161.823 177.038C160.962 176.211 160.225 175.718 159.614 175.558C158.993 175.39 158.46 175.537 158.016 176C157.572 176.463 157.447 177.001 157.641 177.615C157.826 178.219 158.349 178.935 159.211 179.761C160.952 181.432 162.258 181.813 163.129 180.905C164 179.997 163.565 178.708 161.823 177.038ZM170.154 169.856L164.874 164.791L167.167 162.401L172.627 167.639C173.146 168.137 173.705 168.38 174.304 168.367C174.893 168.346 175.428 168.085 175.908 167.585C176.388 167.085 176.626 166.54 176.623 165.95C176.61 165.351 176.345 164.803 175.826 164.305L170.366 159.067L172.658 156.677L177.938 161.742C179.133 162.888 179.741 164.21 179.763 165.708C179.776 167.196 179.223 168.524 178.103 169.691C176.966 170.877 175.662 171.494 174.192 171.542C172.713 171.582 171.367 171.02 170.154 169.856ZM184.14 158.754L188.019 154.71L190.173 156.776L182.815 164.446L182.19 163.846L179.651 153.699L176.372 157.117L174.218 155.051L180.989 147.993L181.615 148.593L184.14 158.754ZM188.895 154.326L189.219 151.541C189.892 151.618 190.482 151.597 190.987 151.477C191.484 151.349 191.941 151.067 192.359 150.632C192.963 150.002 193.043 149.474 192.598 149.047C192.404 148.86 192.198 148.778 191.98 148.801C191.763 148.824 191.389 148.945 190.858 149.165L189.535 149.71C187.365 150.599 185.702 150.488 184.544 149.378C183.738 148.604 183.369 147.682 183.438 146.609C183.515 145.527 184.007 144.514 184.913 143.569C186.335 142.087 187.955 141.631 189.774 142.202L189.464 144.972C188.899 144.875 188.431 144.871 188.061 144.961C187.681 145.041 187.34 145.239 187.038 145.554C186.514 146.1 186.446 146.56 186.835 146.933C187.002 147.093 187.194 147.171 187.412 147.167C187.629 147.144 187.94 147.042 188.345 146.861L189.803 146.232C190.928 145.745 191.885 145.526 192.676 145.573C193.466 145.602 194.181 145.923 194.82 146.536C195.691 147.372 196.079 148.358 195.985 149.494C195.899 150.622 195.39 151.672 194.457 152.644C193.675 153.459 192.792 154.018 191.809 154.32C190.825 154.603 189.854 154.605 188.895 154.326Z" fill="url(#paint26_linear_234_562)"/>
<defs>
<linearGradient id="paint0_linear_234_562" x1="360.543" y1="693.392" x2="360.543" y2="21.9195" gradientUnits="userSpaceOnUse">
<stop stop-color="#F204CB"/>
<stop offset="0.48" stop-color="#B84BC2"/>
<stop offset="1" stop-color="#BF1692"/>
</linearGradient>
<linearGradient id="paint1_linear_234_562" x1="360.543" y1="689.067" x2="360.543" y2="26.2342" gradientUnits="userSpaceOnUse">
<stop stop-color="#AB05F2"/>
<stop offset="0.48" stop-color="#3D0773"/>
<stop offset="1" stop-color="#AB05F2"/>
</linearGradient>
<linearGradient id="paint2_linear_234_562" x1="360.513" y1="658.624" x2="360.513" y2="56.644" gradientUnits="userSpaceOnUse">
<stop stop-color="#490057"/>
<stop offset="1" stop-color="#5D006E"/>
</linearGradient>
<linearGradient id="paint3_linear_234_562" x1="358.67" y1="355.398" x2="334.282" y2="641.354" gradientUnits="userSpaceOnUse">
<stop stop-color="#FF00CC"/>
<stop offset="1" stop-color="#F4A6B3"/>
</linearGradient>
<linearGradient id="paint4_linear_234_562" x1="574.819" y1="571.547" x2="311.638" y2="463.408" gradientUnits="userSpaceOnUse">
<stop stop-color="#FF00CC"/>
<stop offset="1" stop-color="#4B0082"/>
</linearGradient>
<linearGradient id="paint5_linear_234_562" x1="358.67" y1="355.398" x2="515.57" y2="231.39" gradientUnits="userSpaceOnUse">
<stop stop-color="#FF00CC"/>
<stop offset="1" stop-color="#F4A6B3"/>
</linearGradient>
<linearGradient id="paint6_linear_234_562" x1="655.149" y1="282.489" x2="366.24" y2="300.316" gradientUnits="userSpaceOnUse">
<stop stop-color="#FF00CC"/>
<stop offset="1" stop-color="#4B0082"/>
</linearGradient>
<linearGradient id="paint7_linear_234_562" x1="356.899" y1="353.749" x2="499.001" y2="118.442" gradientUnits="userSpaceOnUse">
<stop stop-color="#FF00CC"/>
<stop offset="1" stop-color="#F4A6B3"/>
</linearGradient>
<linearGradient id="paint8_linear_234_562" x1="433.515" y1="63.1142" x2="546.929" y2="211.778" gradientUnits="userSpaceOnUse">
<stop stop-color="#FF00CC"/>
<stop offset="1" stop-color="#4B0082"/>
</linearGradient>
<linearGradient id="paint9_linear_234_562" x1="208.674" y1="353.497" x2="390.159" y2="203.884" gradientUnits="userSpaceOnUse">
<stop stop-color="#FF00CC"/>
<stop offset="1" stop-color="#F4A6B3"/>
</linearGradient>
<linearGradient id="paint10_linear_234_562" x1="139.616" y1="153.123" x2="402.754" y2="241.749" gradientUnits="userSpaceOnUse">
<stop stop-color="#FF00CC"/>
<stop offset="1" stop-color="#4B0082"/>
</linearGradient>
<linearGradient id="paint11_linear_234_562" x1="358.671" y1="355.4" x2="197.149" y2="462.873" gradientUnits="userSpaceOnUse">
<stop stop-color="#FF00CC"/>
<stop offset="1" stop-color="#F4A6B3"/>
</linearGradient>
<linearGradient id="paint12_linear_234_562" x1="74.4503" y1="441.213" x2="364.651" y2="408.565" gradientUnits="userSpaceOnUse">
<stop stop-color="#FF00CC"/>
<stop offset="1" stop-color="#4B0082"/>
</linearGradient>
<linearGradient id="paint13_linear_234_562" x1="358.67" y1="355.398" x2="220.529" y2="610.474" gradientUnits="userSpaceOnUse">
<stop stop-color="#FF00CC"/>
<stop offset="1" stop-color="#F4A6B3"/>
</linearGradient>
<linearGradient id="paint14_linear_234_562" x1="283.18" y1="646.393" x2="170.626" y2="498.835" gradientUnits="userSpaceOnUse">
<stop stop-color="#FF00CC"/>
<stop offset="1" stop-color="#4B0082"/>
</linearGradient>
<linearGradient id="paint15_linear_234_562" x1="347.465" y1="105.877" x2="280.21" y2="71.1248" gradientUnits="userSpaceOnUse">
<stop stop-color="#FF00CC"/>
<stop offset="1" stop-color="#4B0082"/>
</linearGradient>
<linearGradient id="paint16_linear_234_562" x1="561.545" y1="208.694" x2="548.246" y2="144.678" gradientUnits="userSpaceOnUse">
<stop stop-color="#FF00CC"/>
<stop offset="1" stop-color="#4B0082"/>
</linearGradient>
<linearGradient id="paint17_linear_234_562" x1="587.796" y1="456.705" x2="640.777" y2="415.615" gradientUnits="userSpaceOnUse">
<stop stop-color="#FF00CC"/>
<stop offset="1" stop-color="#4B0082"/>
</linearGradient>
<linearGradient id="paint18_linear_234_562" x1="382.268" y1="608.959" x2="445.19" y2="633.633" gradientUnits="userSpaceOnUse">
<stop stop-color="#FF00CC"/>
<stop offset="1" stop-color="#4B0082"/>
</linearGradient>
<linearGradient id="paint19_linear_234_562" x1="152.726" y1="517.084" x2="150.302" y2="558.701" gradientUnits="userSpaceOnUse">
<stop stop-color="#FF00CC"/>
<stop offset="1" stop-color="#4B0082"/>
</linearGradient>
<linearGradient id="paint20_linear_234_562" x1="131.033" y1="251.939" x2="74.371" y2="292.483" gradientUnits="userSpaceOnUse">
<stop stop-color="#FF00CC"/>
<stop offset="1" stop-color="#4B0082"/>
</linearGradient>
<linearGradient id="paint21_linear_234_562" x1="409.135" y1="77.2288" x2="418.199" y2="130.974" gradientUnits="userSpaceOnUse">
<stop stop-color="white"/>
<stop offset="1" stop-color="#F4A6B3"/>
</linearGradient>
<linearGradient id="paint22_linear_234_562" x1="627.405" y1="258.807" x2="584.973" y2="293.619" gradientUnits="userSpaceOnUse">
<stop stop-color="white"/>
<stop offset="1" stop-color="#F4A6B3"/>
</linearGradient>
<linearGradient id="paint23_linear_234_562" x1="574.702" y1="547.629" x2="527.893" y2="541.399" gradientUnits="userSpaceOnUse">
<stop stop-color="white"/>
<stop offset="1" stop-color="#F4A6B3"/>
</linearGradient>
<linearGradient id="paint24_linear_234_562" x1="303.951" y1="638.61" x2="291.33" y2="588.168" gradientUnits="userSpaceOnUse">
<stop stop-color="white"/>
<stop offset="1" stop-color="#F4A6B3"/>
</linearGradient>
<linearGradient id="paint25_linear_234_562" x1="85.8168" y1="450.459" x2="124.893" y2="415.413" gradientUnits="userSpaceOnUse">
<stop stop-color="white"/>
<stop offset="1" stop-color="#F4A6B3"/>
</linearGradient>
<linearGradient id="paint26_linear_234_562" x1="148.229" y1="178.829" x2="173.706" y2="192.274" gradientUnits="userSpaceOnUse">
<stop stop-color="white"/>
<stop offset="1" stop-color="#F4A6B3"/>
</linearGradient>
</defs>
</svg>
